<svg width="200" height="143" viewBox="0 0 200 143" fill="none" xmlns="http://www.w3.org/2000/svg">
<g clip-path="url(#clip0_1_339)">
<path d="M109.421 94.5806C109.583 94.5806 109.744 94.5344 109.917 94.4768C110.055 94.4306 110.344 94.3614 110.424 94.3845C110.632 94.5114 110.897 94.4422 111.024 94.2345C111.151 94.0269 111.082 93.75 110.874 93.6231C110.494 93.3924 110.009 93.5308 109.663 93.6231C109.629 93.6231 109.594 93.6462 109.56 93.6577L110.078 74.7739C110.078 74.5317 109.894 74.324 109.652 74.324C109.375 74.3125 109.202 74.5086 109.202 74.7509L108.672 93.9577C108.672 94.1076 108.741 94.246 108.868 94.3383L109.098 94.4998C109.202 94.569 109.306 94.5921 109.421 94.5921V94.5806Z" fill="#002B67"/>
<path d="M132.761 97.8106C132.864 97.8106 132.968 97.7759 133.06 97.6952C141.674 89.9087 133.522 66.2491 131.042 60.8043C128.425 55.0826 122.97 46.7654 122.913 46.6731C122.844 46.5693 122.74 46.5001 122.625 46.477C122.509 46.454 122.382 46.477 122.29 46.5462L111.981 53.6176C111.785 53.756 111.727 54.0329 111.866 54.229C112.004 54.4251 112.281 54.4828 112.477 54.3443L122.405 47.5268C123.501 49.211 127.952 56.19 130.224 61.1503C132.23 65.5685 140.706 89.551 132.449 97.0146C132.265 97.1761 132.253 97.4529 132.415 97.6375C132.507 97.7298 132.622 97.7875 132.738 97.7875L132.761 97.8106Z" fill="#002B67"/>
<path d="M200 123.846C200.035 134.102 191.744 142.442 181.492 142.476C171.241 142.511 162.904 134.217 162.869 123.962L200 123.846Z" fill="#00CD96"/>
<path d="M110.182 47.3999C111.082 47.3999 111.866 47.0423 112.454 46.3617C113.33 46.6847 114.195 46.7193 114.806 46.0733C115.867 44.9543 116.248 41.9089 115.971 36.7756C115.971 36.591 115.844 36.418 115.66 36.3488C115.487 36.2795 115.279 36.3141 115.152 36.4526C115.048 36.5564 114.933 36.6487 114.806 36.7294C114.126 37.1909 113.284 37.4792 112.373 37.5485L112.316 38.033L112.281 37.5485C112.085 37.56 111.877 37.5715 111.647 37.5831C111.012 37.6061 110.436 37.6177 109.929 37.5831C109.825 37.5831 109.732 37.5831 109.64 37.56H109.41C109.317 37.5369 109.225 37.5254 109.133 37.5139C108.971 37.4908 108.891 37.4792 108.798 37.4677L108.672 37.4446C108.545 37.4216 108.453 37.41 108.372 37.387C108.268 37.3639 108.176 37.3408 108.095 37.3177C107.173 37.0524 107.207 36.7179 107.23 36.6025C107.276 36.268 107.622 35.9335 108.222 35.6451C108.429 35.5528 108.533 35.3221 108.487 35.1029C108.441 34.8837 108.245 34.7222 108.026 34.7222C107.415 34.7222 106.365 34.6184 106.319 34.0416C106.296 33.8225 106.135 33.6494 105.927 33.6033C105.789 33.5802 102.548 32.9804 100.784 33.338C100.657 33.361 100.542 33.4418 100.473 33.5456C100.404 33.6494 100.381 33.7878 100.404 33.9147C100.611 34.8953 100.761 35.8181 100.853 36.6718C100.865 36.7756 100.911 36.8679 100.98 36.9486L103.194 39.3249C103.263 39.4749 103.413 39.821 103.644 40.2824C104.071 41.1591 104.52 41.9897 104.97 42.751C105.339 43.3739 105.72 43.9392 106.077 44.4237C106.089 44.4468 106.1 44.4583 106.123 44.4698C107.495 46.3271 108.81 47.2961 110.021 47.3537C110.078 47.3537 110.125 47.3537 110.182 47.3537V47.3999ZM112.304 45.2889C112.154 45.2889 112.004 45.3581 111.912 45.4965C111.451 46.1656 110.839 46.4655 110.078 46.4309C109.167 46.3847 108.06 45.508 106.873 43.8931C106.861 43.8815 106.85 43.8584 106.827 43.8469C106.492 43.397 106.158 42.8664 105.812 42.2896C105.374 41.5629 104.935 40.7554 104.52 39.9017C104.232 39.3019 104.059 38.9097 104.059 38.9097C104.036 38.8635 104.001 38.8058 103.967 38.7712L101.81 36.4526C101.73 35.7604 101.614 35.0337 101.465 34.2723C102.779 34.157 104.693 34.4338 105.443 34.5607C105.593 34.976 105.95 35.3798 106.746 35.5874C106.446 35.9219 106.331 36.2565 106.296 36.5218C106.238 36.9947 106.354 37.8599 107.853 38.2867C107.957 38.3213 108.084 38.3444 108.199 38.3675C108.28 38.3906 108.383 38.4021 108.476 38.4252C108.556 38.4367 108.602 38.4482 108.66 38.4598C108.752 38.4713 108.856 38.4944 108.96 38.5059C109.121 38.529 109.237 38.5405 109.34 38.5521H109.583C109.675 38.5751 109.79 38.5867 109.905 38.5867C110.447 38.6097 111.047 38.6097 111.693 38.5867C111.947 38.5867 112.166 38.5636 112.373 38.5521C112.396 38.5521 112.442 38.5521 112.5 38.5521C113.423 38.4828 114.322 38.206 115.072 37.7676C115.291 43.3163 114.587 44.9659 114.126 45.4504C113.941 45.6465 113.792 45.658 113.688 45.658C113.33 45.658 112.938 45.5657 112.535 45.3696C112.465 45.335 112.396 45.3235 112.327 45.3235L112.304 45.2889Z" fill="#002B67"/>
<path d="M93.0927 23.1059C93.4963 23.4981 93.9921 23.8326 94.5918 23.9826C96.5406 24.4786 97.7398 24.4901 97.7398 24.4901L98.7315 26.9818L99.1351 27.9854C99.7809 29.7619 100.427 31.8037 100.876 33.8571C101.072 34.803 101.234 35.7374 101.338 36.6602C101.499 38.2637 101.488 39.7979 101.188 41.1476C100.819 42.8087 100.184 44.0199 99.3658 44.8967L99.6886 45.5196C100.184 46.477 101.372 46.8462 102.329 46.3386L106.469 44.1699L109.94 42.3588C109.94 42.3588 109.963 42.3473 109.975 42.3357L111.312 41.6321C112.269 41.136 112.638 39.9479 112.143 38.9904L111.658 38.056C111.116 38.0791 110.517 38.0906 109.917 38.056C109.813 38.056 109.709 38.056 109.606 38.033C109.525 38.033 109.456 38.033 109.375 38.0214C109.271 38.0214 109.167 37.9984 109.075 37.9868C108.96 37.9753 108.833 37.9522 108.729 37.9407C108.683 37.9407 108.637 37.9407 108.602 37.9176C108.499 37.8945 108.383 37.883 108.279 37.8599C108.176 37.8369 108.072 37.8138 107.98 37.7907C107.207 37.5715 106.688 37.1793 106.769 36.5564C106.838 36.0142 107.322 35.5643 108.026 35.2183C106.838 35.2067 105.916 34.9183 105.835 34.0993C105.835 34.0762 105.835 34.0647 105.835 34.0416C105.812 33.4302 106.238 32.8535 106.93 32.3459C107.265 32.1037 107.645 31.8729 108.083 31.6653C107.553 31.7114 107.046 31.723 106.584 31.6653C105.639 31.573 104.947 31.25 104.924 30.5117C104.912 30.1195 105.074 29.7388 105.397 29.3812C105.696 29.0352 106.123 28.7122 106.631 28.4238L102.433 20.395C101.926 19.4375 100.75 19.0684 99.7924 19.5644L99.1005 19.9336L98.4317 20.2912L98.0858 20.4757L96.0217 21.5486L93.1042 23.0828L93.0927 23.1059Z" fill="#002B67"/>
<path d="M89.9792 26.9357C89.9792 26.9357 90.0138 26.8664 90.0253 26.8318C90.4866 25.8052 90.821 24.9169 91.0632 24.1671L90.798 24.294L90.7634 24.3171C89.8293 24.8246 89.4834 25.9897 89.9677 26.9357H89.9792Z" fill="#002B67"/>
<path d="M93.0927 23.1059C93.4963 23.4981 93.9922 23.8326 94.5918 23.9826C96.5406 24.4786 97.7399 24.4901 97.7399 24.4901L98.7316 26.9818L99.1351 27.9854C99.7809 29.7619 100.427 31.8037 100.876 33.8571C101.072 34.803 101.234 35.7374 101.338 36.6602C101.499 38.2637 101.488 39.7979 101.188 41.1476C100.819 42.8087 100.185 44.0199 99.3658 44.8966C98.9968 45.3004 98.5816 45.6349 98.1434 45.9002L98.3164 46.2348C98.8123 47.1922 100 47.5614 100.957 47.0653L102.329 46.3501L106.469 44.1814L109.94 42.3703C109.94 42.3703 109.963 42.3588 109.975 42.3473C110.909 41.8397 111.266 40.6746 110.77 39.7287L109.917 38.0906C109.813 38.0906 109.709 38.0906 109.606 38.0676C109.525 38.0676 109.456 38.0676 109.375 38.056C109.271 38.056 109.167 38.033 109.075 38.0214C108.96 38.0099 108.833 37.9868 108.729 37.9753C108.683 37.9753 108.637 37.9753 108.602 37.9522C108.499 37.9291 108.383 37.9176 108.28 37.8945C108.176 37.8715 108.072 37.8484 107.98 37.8253C107.207 37.6061 106.688 37.2139 106.769 36.591C106.838 36.0488 107.322 35.5989 108.026 35.2529C106.838 35.2413 105.916 34.9529 105.835 34.1339C105.835 34.1108 105.835 34.0993 105.835 34.0762C105.812 33.4648 106.238 32.8881 106.93 32.3805L106.584 31.7114C105.639 31.6191 104.947 31.2961 104.924 30.5579C104.912 30.1657 105.074 29.785 105.397 29.4274L101.072 21.1563C100.703 20.4527 99.9539 20.0605 99.2043 20.1181C98.9391 20.1297 98.6739 20.1989 98.4317 20.3258L98.0858 20.5103L96.0217 21.5832L93.1042 23.1174L93.0927 23.1059Z" fill="#33C5F3"/>
<path d="M88.6186 27.6509L89.0567 28.5045C89.4142 28.0085 89.7256 27.4894 89.9793 26.9472C89.9793 26.9472 90.0138 26.878 90.0254 26.8434C90.4866 25.8167 90.821 24.9285 91.0632 24.1786L90.798 24.3055L90.7634 24.3286L89.4258 25.0323C88.4686 25.5283 88.0996 26.7165 88.607 27.6739L88.6186 27.6509Z" fill="#33C5F3"/>
<path d="M105.281 41.0553C105.72 41.8974 105.466 42.9125 104.716 43.3047C103.967 43.697 102.987 43.3278 102.548 42.4857C102.11 41.6436 102.364 40.6285 103.113 40.2363C103.863 39.8441 104.843 40.2132 105.281 41.0553Z" fill="#002B67"/>
<path d="M115.371 35.5297C115.452 35.5297 115.544 35.5066 115.613 35.4605C115.775 35.3682 115.867 35.1836 115.856 34.9991C115.798 34.3069 115.74 33.6955 115.694 33.188V33.0495C115.66 32.865 115.544 32.7035 115.371 32.6458C115.198 32.5766 115.002 32.6227 114.864 32.7496C114.287 33.3033 113.538 33.7417 113.342 33.8455C113.273 33.8686 113.134 33.9032 112.927 33.9609C112.696 34.0185 112.546 34.2377 112.569 34.4684C112.592 34.7107 112.777 34.8952 113.019 34.9068C113.964 34.976 114.702 35.1606 115.106 35.4374C115.187 35.4951 115.279 35.5182 115.383 35.5182L115.371 35.5297ZM114.795 34.0647C114.795 34.1339 114.806 34.1916 114.818 34.2608C114.749 34.2377 114.679 34.2146 114.61 34.2031C114.668 34.157 114.737 34.1108 114.795 34.0647Z" fill="#002B67"/>
<path d="M56.7574 65.6377C59.179 65.6723 61.7966 65.1878 64.5065 64.1496C68.3695 62.673 71.0909 59.9391 72.9936 56.5937C75.4036 52.3948 76.5221 47.2614 76.9834 42.4972C77.0757 41.4936 77.1448 40.5246 77.191 39.5672C76.5106 37.9291 76.6605 36.268 77.2486 35.0337C77.1679 30.8693 76.7412 27.9739 76.7412 27.9739L75.8187 21.1563C75.8187 21.1563 75.0577 20.5449 73.7316 19.8528C69.1997 17.5226 58.0489 14.4195 47.9359 32.4843C37.0042 52.0141 44.3496 65.4762 56.7689 65.6261L56.7574 65.6377Z" fill="#002B67"/>
<path d="M71.9903 36.0258C73.3856 39.2788 75.1384 41.2976 76.9719 42.5088C79.7971 44.366 82.8183 44.3199 85.0323 43.8469C84.3404 43.3048 84.006 42.901 84.006 42.901C84.006 42.901 80.6042 44.2622 78.125 41.1707C77.7099 40.6516 77.3985 40.1209 77.1794 39.5903C76.4991 37.9522 76.649 36.2911 77.2371 35.0568C77.6061 34.2608 78.1711 33.661 78.7938 33.3495C80.6388 32.4382 82.9336 33.5802 83.1412 33.684H83.1527C83.1527 33.684 86.8889 31.55 89.0683 28.5161C89.4257 28.0201 89.7371 27.501 89.9908 26.9588C89.9908 26.9588 90.0254 26.8896 90.0369 26.855C90.4982 25.8283 90.8326 24.94 91.0747 24.1902C91.7436 22.1484 91.7436 21.1102 91.7436 21.0525C91.7436 21.0525 92.1702 22.2407 93.0927 23.1289C93.4963 23.5212 93.9922 23.8557 94.5918 24.0057C96.5406 24.5017 97.7399 24.5132 97.7399 24.5132L98.7316 27.0049C98.7316 27.0049 98.7316 26.9818 98.7431 26.9703C98.8007 26.7973 98.8584 26.6358 98.9045 26.4512C99.4811 24.617 99.9654 22.506 99.7233 21.2025C99.6656 20.9026 99.4811 20.5334 99.1928 20.1412C99.1582 20.0951 99.1352 20.0489 99.089 20.0028C96.5867 16.7036 87.3155 11.005 79.3819 14.8233C76.8681 16.0345 75.0115 17.8341 73.697 19.9105C70.2837 25.2861 70.4567 32.5074 71.9788 36.0604L71.9903 36.0258Z" fill="#002B67"/>
<path d="M94.096 47.3998C95.595 47.3998 97.1056 47.1114 98.3971 46.3155C98.8815 46.0156 99.3312 45.6464 99.7117 45.2311C100.634 44.2391 101.292 42.9009 101.649 41.2513C101.937 39.9478 101.995 38.3905 101.81 36.6025C101.707 35.7142 101.557 34.7568 101.338 33.7532C100.934 31.9075 100.346 29.9118 99.5733 27.8123L98.178 24.3055C98.1089 24.1209 97.9244 24.0056 97.7283 24.0056C97.7168 24.0056 96.5521 23.994 94.6956 23.5096C94.2459 23.3942 93.8192 23.1404 93.4156 22.7597C93.4041 22.7482 93.3925 22.7367 93.381 22.7251C92.5853 21.9292 92.1933 20.8794 92.1817 20.8679C92.101 20.6487 91.8819 20.5218 91.6398 20.5564C91.4091 20.6026 91.2362 20.7987 91.2362 21.0294C91.2362 21.0294 91.2362 22.033 90.5904 24.0171C90.5904 24.0171 90.5904 24.0402 90.5904 24.0517C90.3252 24.8708 89.9792 25.7359 89.5756 26.6472C89.5641 26.6703 89.5411 26.7049 89.5295 26.7511C89.2989 27.2356 89.0106 27.7201 88.6531 28.2392C86.8543 30.7539 83.9137 32.6573 83.1066 33.1533C82.3224 32.7957 80.2929 32.069 78.5632 32.9226C77.8367 33.2802 77.2025 33.9724 76.7874 34.8491C76.7874 34.8606 76.7758 34.8721 76.7758 34.8837C76.0724 36.3718 76.0494 38.1598 76.7182 39.7748C76.9603 40.3631 77.2947 40.9399 77.7329 41.4821C79.947 44.2391 82.8759 43.7315 83.8446 43.4662C84.0291 43.6507 84.3173 43.9276 84.7209 44.2391C85.655 44.9889 87.2348 46.0156 89.4834 46.6731C90.821 47.0653 92.4585 47.4114 94.096 47.4114V47.3998ZM97.4054 24.963L98.6854 28.1699C99.435 30.2117 100.012 32.1613 100.404 33.9608C100.611 34.9298 100.761 35.8642 100.853 36.7178C101.026 38.3905 100.98 39.8555 100.715 41.0437C100.381 42.5203 99.8155 43.7084 99.0083 44.5736C98.6739 44.9312 98.3049 45.2427 97.8898 45.4964C95.4912 46.973 92.1471 46.4424 89.7602 45.7387C87.673 45.1273 86.197 44.1699 85.3321 43.4777C84.6979 42.9701 84.375 42.601 84.375 42.5895C84.2482 42.428 84.0175 42.3703 83.8215 42.451C83.6947 42.4972 80.7196 43.6277 78.494 40.8591C78.1135 40.3862 77.8252 39.9017 77.6176 39.3941C77.0411 38.0214 77.0641 36.5102 77.6638 35.2644C77.6638 35.2528 77.6753 35.2413 77.6868 35.2182C78.0097 34.5491 78.4825 34.0416 79.0014 33.7763C80.6388 32.9688 82.8183 34.0646 82.9105 34.1108C83.0604 34.2146 83.2219 34.2031 83.3833 34.1108C83.5448 34.0185 87.2348 31.8844 89.4488 28.7929C89.8524 28.2392 90.1638 27.697 90.4174 27.1548C90.4174 27.1548 90.4174 27.1433 90.4174 27.1317C90.429 27.0971 90.452 27.0741 90.4636 27.0395C90.8787 26.0935 91.2362 25.1822 91.5245 24.3286C91.5245 24.317 91.5245 24.3055 91.5245 24.294C91.7435 23.6134 91.8935 23.0366 91.9972 22.5752C92.2048 22.8751 92.447 23.1866 92.7352 23.4634C92.7468 23.4749 92.7698 23.4865 92.7814 23.5096C93.2887 23.994 93.8538 24.317 94.4534 24.467C95.8602 24.8246 96.8981 24.94 97.3939 24.9746L97.4054 24.963Z" fill="#002B67"/>
<path d="M83.1412 34.1685C83.2219 34.1685 83.3141 34.1454 83.3833 34.0993C83.6139 33.9609 83.6947 33.6609 83.5563 33.4302L81.6421 30.2118C82.2071 28.7929 85.5858 20.7872 90.256 19.772C92.0318 19.3798 93.8423 20.095 95.6296 21.8715C95.6411 21.8831 95.6527 21.9061 95.6642 21.9177C95.8948 22.1484 96.137 22.4022 96.3676 22.679C96.4599 22.8751 96.8173 23.6019 97.2786 24.6747C97.6015 25.413 97.9474 26.2435 98.2818 27.1087C98.4087 27.4548 98.5355 27.7778 98.6624 28.1123C98.72 28.3084 98.9045 28.4584 99.1236 28.4584C99.3888 28.4584 99.6079 28.2507 99.6079 27.9854C99.6079 27.9277 99.6079 27.8585 99.5733 27.8008C99.4465 27.4548 99.3197 27.1202 99.1928 26.7972C98.8469 25.8975 98.4894 25.0438 98.1665 24.294C97.613 23.0135 97.2209 22.2407 97.2094 22.2061C97.1864 22.1714 97.1748 22.1368 97.1402 22.1022C96.8865 21.8023 96.6328 21.5255 96.3792 21.2717C96.3792 21.2601 96.3561 21.2486 96.3446 21.2371C94.3035 19.1837 92.1817 18.3762 90.0484 18.8377C84.4327 20.0604 80.8003 29.6927 80.6388 30.0964C80.5927 30.2348 80.6042 30.3848 80.6734 30.5117L82.703 33.9262C82.7952 34.0762 82.9566 34.1685 83.1181 34.1685H83.1412Z" fill="#002B67"/>
<path d="M78.9783 30.2695L83.1296 33.6725H83.1412C83.1412 33.6725 86.8773 31.5384 89.0568 28.5045C89.4142 28.0085 89.7256 27.4894 89.9793 26.9472C89.9793 26.9472 90.0138 26.878 90.0254 26.8434C90.4866 25.8167 90.821 24.9285 91.0632 24.1787C91.732 22.1369 91.732 21.0987 91.732 21.041C91.732 21.041 92.1587 22.2292 93.0812 23.1174C93.4848 23.5096 93.9806 23.8441 94.5803 23.9941C96.5291 24.4901 97.7283 24.5017 97.7283 24.5017L98.72 26.9934L99.1236 27.997L98.9045 26.4397L98.0627 20.5219L97.9244 19.576C97.9244 19.576 92.5738 17.0266 91.8704 17.0612C91.167 17.0958 82.4262 19.0915 81.9419 19.6452C81.4576 20.1989 79.0014 27.1895 79.0014 27.1895L78.9553 30.2926L78.9783 30.2695Z" fill="#002B67"/>
<path d="M48.7316 101.721C40.7634 80.7379 51.3146 57.2744 72.2786 49.3148C93.2542 41.3437 116.709 51.8988 124.666 72.8706L48.72 101.721H48.7316Z" fill="#FF6400"/>
<path d="M107.219 32.2074C107.495 32.2074 107.795 32.1959 108.118 32.1728C108.176 32.1728 108.233 32.1498 108.28 32.1267L108.464 32.0344C108.591 31.9767 108.718 31.9191 108.845 31.8729C108.914 31.8383 108.96 31.8268 108.994 31.8152L109.075 31.7806C109.248 31.7114 109.421 31.6537 109.594 31.5961C109.928 31.4807 110.286 31.3769 110.759 31.25L111.07 31.1808C111.255 31.1346 111.451 31.1 111.635 31.0654C111.981 31.0077 112.315 30.9616 112.638 30.9385C112.731 30.9385 112.788 30.927 112.857 30.9155H112.996C113.169 30.9039 113.342 30.9155 113.48 30.8232C114.829 29.9119 115.521 29.0467 115.521 28.2392C115.521 27.8816 115.394 27.374 114.737 26.9241C113.146 25.8398 108.81 26.6242 106.377 28.02C105.8 28.343 105.339 28.7006 105.016 29.0813C104.613 29.5312 104.405 30.0388 104.428 30.5348C104.451 31.0654 104.751 31.9883 106.527 32.1498C106.734 32.1728 106.965 32.1844 107.207 32.1844L107.219 32.2074ZM107.957 31.2038C107.449 31.2385 107 31.2385 106.631 31.2038C105.431 31.0885 105.408 30.6617 105.408 30.5232C105.408 30.2695 105.512 30.0157 105.754 29.7388C106.008 29.4389 106.388 29.1505 106.873 28.8737C109.156 27.5586 113.065 26.9472 114.207 27.7316C114.564 27.9739 114.564 28.17 114.564 28.2392C114.564 28.6545 113.988 29.3005 113.065 29.9349C113.03 29.9349 112.984 29.9349 112.95 29.9349H112.823C112.719 29.9465 112.627 29.958 112.535 29.9695C112.2 29.9926 111.831 30.0388 111.462 30.108C111.255 30.1426 111.059 30.1772 110.851 30.2233L110.528 30.2925C110.009 30.4194 109.629 30.5348 109.283 30.6617C109.098 30.7194 108.902 30.7886 108.718 30.8693C108.602 30.9155 108.533 30.9385 108.476 30.9731C108.36 31.0193 108.21 31.077 108.06 31.1462L107.957 31.1923V31.2038Z" fill="#002B67"/>
<path d="M108.014 35.7258C108.095 35.7258 108.164 35.7027 108.233 35.6681C108.326 35.622 108.429 35.5759 108.533 35.5297C108.868 35.4028 109.225 35.2875 109.606 35.1952C109.721 35.1606 109.836 35.149 109.952 35.126C110.505 35.0106 111.093 34.9414 111.693 34.9068C112.131 34.8837 112.581 34.8837 113.007 34.9068C113.065 34.9068 113.111 34.9068 113.157 34.8953C113.48 34.8145 113.653 34.7568 113.653 34.7568C113.688 34.7568 113.711 34.7338 113.745 34.7222C113.792 34.6991 114.76 34.1685 115.51 33.4533C116.167 32.8188 116.478 32.2075 116.421 31.6307C116.386 31.1692 116.121 30.7655 115.648 30.4425C115.106 30.0734 114.287 29.9003 113.192 29.9349C113.123 29.9349 113.019 29.9349 112.938 29.9349H112.811C112.708 29.9465 112.615 29.958 112.523 29.9695C112.189 29.9926 111.82 30.0388 111.451 30.108C111.243 30.1426 111.047 30.1772 110.839 30.2233L110.517 30.2925C109.998 30.4194 109.617 30.5348 109.271 30.6617C109.075 30.7309 108.891 30.7886 108.706 30.8693C108.591 30.9155 108.522 30.9385 108.464 30.9731C108.349 31.0193 108.199 31.077 108.049 31.1462L107.864 31.2269C107.369 31.4692 106.965 31.7114 106.631 31.9537C105.743 32.5997 105.304 33.3149 105.339 34.0532C105.339 34.0532 105.339 34.18 105.362 34.2147C105.408 34.8376 105.927 35.6797 108.014 35.7027V35.7258ZM112.281 33.9263C112.073 33.9263 111.866 33.9263 111.658 33.9378C111.001 33.9724 110.367 34.0532 109.767 34.1685C109.64 34.1916 109.513 34.2147 109.387 34.2493C108.96 34.3531 108.556 34.48 108.176 34.6299C108.083 34.6645 108.003 34.6991 107.911 34.7453C107.288 34.7222 106.365 34.6069 106.308 34.0647H105.823L106.308 34.0301C106.285 33.5225 106.792 33.0496 107.207 32.7496C107.495 32.5304 107.853 32.3228 108.28 32.1152L108.464 32.0344C108.591 31.9767 108.718 31.9191 108.845 31.8729C108.914 31.8383 108.96 31.8268 108.994 31.8152L109.075 31.7806C109.248 31.7114 109.421 31.6537 109.594 31.5961C109.929 31.4807 110.274 31.3769 110.747 31.2615L111.059 31.1923C111.243 31.1462 111.439 31.1116 111.624 31.077C111.97 31.0193 112.304 30.9731 112.627 30.9501C112.719 30.9501 112.777 30.9385 112.846 30.927H112.984C113.054 30.927 113.134 30.9155 113.203 30.9155C114.08 30.8924 114.749 31.0193 115.106 31.2615C115.325 31.4115 115.452 31.573 115.464 31.7345C115.487 31.9883 115.268 32.3574 114.841 32.7727C114.264 33.3264 113.515 33.7648 113.33 33.8686C113.273 33.8917 113.157 33.9147 112.996 33.9609C112.754 33.9493 112.523 33.9378 112.281 33.9378V33.9263Z" fill="#002B67"/>
<path d="M110.69 38.5867C111.001 38.5867 111.335 38.5867 111.67 38.5636C111.923 38.5636 112.143 38.5405 112.35 38.529C112.373 38.529 112.419 38.529 112.477 38.529C113.526 38.4482 114.53 38.1137 115.36 37.5485C115.533 37.4331 115.694 37.3062 115.833 37.1678C116.236 36.7871 116.444 36.3834 116.444 35.9681C116.444 35.5759 116.271 35.2067 115.913 34.8722C115.844 34.803 115.752 34.7338 115.648 34.653C114.956 34.1801 113.872 34.007 113.088 33.9609C112.627 33.9263 112.143 33.9263 111.658 33.9609C111.001 33.9955 110.367 34.0762 109.767 34.1916C109.64 34.2147 109.513 34.2377 109.387 34.2724C108.96 34.3762 108.556 34.5031 108.176 34.653C108.049 34.7107 107.922 34.7568 107.807 34.8261C106.665 35.3682 106.354 36.0488 106.285 36.5218C106.227 36.9948 106.342 37.8599 107.841 38.2867C107.957 38.3214 108.072 38.3444 108.187 38.3675C108.268 38.3906 108.372 38.4021 108.464 38.4252C108.545 38.4367 108.591 38.4482 108.649 38.4598C108.741 38.4713 108.845 38.4944 108.948 38.5059C109.11 38.529 109.225 38.5405 109.329 38.5521H109.571C109.663 38.5751 109.779 38.5867 109.894 38.5867C110.148 38.5982 110.413 38.6097 110.69 38.6097V38.5867ZM112.281 34.9068C112.523 34.9068 112.777 34.9068 113.007 34.9299C113.941 34.9991 114.691 35.1837 115.095 35.4605C115.141 35.4951 115.198 35.5297 115.233 35.5643C115.394 35.7143 115.475 35.8527 115.475 35.9681C115.475 36.1065 115.371 36.2796 115.164 36.4641C115.06 36.5679 114.933 36.6602 114.806 36.741C114.126 37.2024 113.284 37.4908 112.373 37.56L112.315 38.0445L112.281 37.56C112.085 37.5715 111.877 37.5831 111.647 37.5946C111.012 37.6177 110.436 37.6292 109.929 37.5946C109.825 37.5946 109.732 37.5946 109.64 37.5715H109.41C109.317 37.5485 109.225 37.5369 109.133 37.5254C108.971 37.5023 108.891 37.4908 108.798 37.4793L108.672 37.4562C108.545 37.4331 108.452 37.4216 108.372 37.3985C108.268 37.3754 108.176 37.3524 108.095 37.3293C107.173 37.064 107.219 36.7294 107.23 36.6256C107.276 36.2911 107.622 35.9566 108.222 35.6682C108.326 35.6105 108.429 35.5759 108.533 35.5297C108.868 35.4028 109.225 35.2875 109.606 35.1952C109.721 35.1606 109.836 35.1491 109.952 35.126C110.505 35.0106 111.093 34.9414 111.693 34.9068C111.889 34.9068 112.085 34.8953 112.269 34.8953L112.281 34.9068Z" fill="#002B67"/>
<path d="M119.5 111.019C119.707 111.019 119.892 110.984 120.053 110.892C120.307 110.754 120.468 110.523 120.537 110.223C120.86 108.804 118.577 105.436 117.574 104.051C117.412 103.832 117.113 103.786 116.893 103.936C116.674 104.097 116.628 104.397 116.778 104.605C118.958 107.627 119.799 109.704 119.569 110.038C119.027 110.338 115.982 108.504 113.077 106.116C112.892 105.966 112.627 105.966 112.442 106.116C112.408 106.151 109.075 109.058 105.766 109.254C104.555 109.335 103.482 109.035 102.595 108.366C101.211 107.327 100 106.243 99.0083 105.113C97.9128 103.89 97.7629 102.102 98.6278 100.671L99.3888 99.414C100.369 97.799 101.891 96.5762 103.679 95.9764C104.163 95.8149 104.682 95.6303 105.224 95.3996C105.327 95.365 105.443 95.3188 105.57 95.2612C106.181 95.0074 107.369 94.7882 109.098 94.5921C112.927 94.1884 118.358 94.0961 121.275 94.0384H122.013C122.013 94.0384 122.071 94.0269 122.106 94.0269C124.873 94.0269 130.985 96.4378 132.818 97.9951C133.037 98.1797 133.141 98.3066 133.187 98.3758C133.003 98.4911 132.322 98.7565 130.005 98.7103L121.967 98.4796C121.691 98.4335 121.471 98.6872 121.471 98.9526C121.471 99.2179 121.679 99.4486 121.944 99.4486L129.993 99.6793C132.968 99.737 133.706 99.3102 134.006 98.941C134.225 98.6757 134.456 98.0874 133.452 97.2568C131.458 95.5726 125.092 93.0694 122.106 93.0694C122.071 93.0694 122.036 93.0694 122.002 93.0694H121.264C118.323 93.1386 112.869 93.2309 108.994 93.6346C107.149 93.8307 105.904 94.073 105.189 94.3729C105.074 94.4191 104.982 94.4652 104.878 94.4998C104.324 94.719 103.828 94.9036 103.367 95.0535C101.361 95.7226 99.6541 97.0953 98.5586 98.9064L97.7975 100.164C96.7136 101.952 96.9096 104.201 98.2818 105.747C99.3196 106.924 100.577 108.054 102.018 109.127C103.102 109.934 104.382 110.315 105.835 110.211C108.891 110.027 111.82 107.87 112.777 107.097C114.506 108.493 117.827 110.984 119.5 110.984V111.019Z" fill="#002B67"/>
<path d="M126.58 108.781C126.891 108.781 127.156 108.735 127.375 108.642C128.183 108.273 128.402 107.766 128.436 107.397C128.471 107.12 128.402 106.854 128.286 106.612C129.186 106.762 130.235 106.693 130.835 105.874C131.746 104.617 129.716 102.748 127.191 100.625C126.983 100.452 126.684 100.475 126.511 100.683C126.338 100.891 126.361 101.19 126.568 101.364C129.186 103.555 130.362 104.882 130.051 105.297C129.474 106.093 127.664 105.516 127.076 105.239C126.845 105.136 126.58 105.216 126.453 105.436C126.326 105.655 126.384 105.92 126.58 106.07C126.96 106.347 127.502 106.935 127.456 107.281C127.433 107.489 127.168 107.65 126.949 107.743C125.992 108.17 122.094 106.601 117.447 103.924L117.147 104.305L116.801 104.651L117.147 104.305L116.79 104.628C116.79 104.628 116.87 104.709 116.917 104.732C119.696 106.335 124.274 108.769 126.557 108.769L126.58 108.781Z" fill="#002B67"/>
<path d="M83.1412 114.803C84.2251 114.803 85.3206 114.791 86.4507 114.756C97.0249 114.48 105.939 112.911 106.031 112.888C106.273 112.841 106.446 112.634 106.435 112.38L106.296 109.727C106.285 109.462 106.054 109.265 105.789 109.265C105.524 109.277 105.316 109.508 105.328 109.773L105.443 111.999C101.407 112.657 69.6841 117.479 56.3077 107.962C53.0674 105.655 51.1301 102.656 50.5535 99.0333C48.9622 89.0781 49.8386 80.2418 53.1481 72.7552C55.5235 67.3796 60.6204 66.1914 64.2643 66.8143C67.9313 67.4372 72.3939 70.2635 72.8667 76.1697C73.5471 84.6023 74.8616 86.125 75.7841 86.5287C77.8252 87.4285 100.899 90.5316 104.359 90.993L104.566 94.9843C104.578 95.2496 104.832 95.4342 105.074 95.4457C105.339 95.4342 105.547 95.2035 105.535 94.9382L105.316 90.5431C105.304 90.3124 105.131 90.1163 104.901 90.0817C97.4862 89.1011 77.8713 86.3787 76.1877 85.6289C75.6919 85.4098 74.4926 84.0485 73.8469 76.0774C73.4202 70.7595 69.7187 66.7336 64.4373 65.8453C59.202 64.9571 54.4165 67.5065 52.2717 72.3514C48.8815 80.0111 47.982 89.0435 49.5964 99.1833C50.2191 103.071 52.2832 106.289 55.7426 108.746C61.3815 112.761 70.595 114.779 83.1527 114.779L83.1412 114.803Z" fill="#002B67"/>
<path d="M175.53 116.383H131.907C130.939 116.383 130.327 115.275 130.8 114.387L145.733 86.2749C145.952 85.8481 146.379 85.5943 146.84 85.5943H190.464C191.432 85.5943 192.043 86.7017 191.571 87.59L176.637 115.702C176.418 116.129 175.992 116.383 175.53 116.383Z" fill="#002B67"/>
<path d="M179.532 116.383H135.909C134.94 116.383 134.329 115.275 134.802 114.387L149.735 86.2749C149.954 85.8481 150.381 85.5943 150.842 85.5943H194.453C195.422 85.5943 196.033 86.7017 195.56 87.59L180.627 115.702C180.408 116.129 179.982 116.383 179.52 116.383H179.532Z" fill="#33C5F3"/>
<path d="M181.065 118.528H123.512C122.382 118.528 121.471 117.617 121.471 116.487C121.471 115.356 122.382 114.445 123.512 114.445H181.065C182.196 114.445 183.107 115.356 183.107 116.487C183.107 117.617 182.196 118.528 181.065 118.528Z" fill="#002B67"/>
<path d="M165.187 104.028C162.977 104.028 161.185 102.236 161.185 100.025C161.185 97.8147 162.977 96.0225 165.187 96.0225C167.397 96.0225 169.188 97.8147 169.188 100.025C169.188 102.236 167.397 104.028 165.187 104.028Z" fill="white"/>
<path d="M40.3829 32.0114C38.0881 33.1534 36.0355 34.4915 34.548 35.6566C22.7975 44.8044 15.6827 61.9117 27.018 74.0933C27.1333 74.2202 27.3293 74.2317 27.4562 74.1048C27.583 73.9895 27.5946 73.7934 27.4677 73.6665C16.3861 61.7733 23.4433 45.0928 34.917 36.1526C36.3123 35.0683 38.238 33.7994 40.3829 32.7035C40.5443 36.3141 41.9742 39.6364 45.3183 41.9435C47.7745 43.6393 51.6259 43.1778 54.3819 41.4821C57.1841 39.7518 58.8446 36.7871 56.9188 33.5687C54.9124 30.2233 51.7182 29.2428 48.2818 29.5427C45.8718 29.7619 43.3349 30.6155 41.0055 31.7114C41.0055 31.5961 41.0055 31.4807 41.0055 31.3654C41.2246 25.413 44.6725 18.9069 48.2472 15.204C51.7643 11.5587 56.3538 9.00932 61.1393 7.44048C61.3008 7.3828 61.393 7.20977 61.3353 7.04827C61.2777 6.88677 61.1047 6.79448 60.9433 6.85216C56.0655 8.44408 51.3838 11.0511 47.7975 14.7771C44.1305 18.5839 40.6135 25.2399 40.3829 31.3538C40.3829 31.573 40.3713 31.8037 40.3713 32.0229L40.3829 32.0114ZM41.0171 32.392C43.358 31.2615 45.9179 30.3733 48.351 30.1541C51.5568 29.8657 54.5203 30.754 56.3884 33.8686C58.1181 36.741 56.5729 39.3826 54.0591 40.9284C51.5106 42.4972 47.959 42.9702 45.6873 41.4129C42.4354 39.1634 41.1093 35.9104 41.0055 32.392H41.0171Z" fill="#002B67"/>
<path d="M139.806 32.6689L136.208 41.2168L145.987 39.5787L139.806 32.6689Z" fill="#FFC40D"/>
<path d="M111.497 8.20183L116.559 5.27178L119.488 10.3359L116.559 5.27178L121.621 2.34173L116.559 5.27178L113.642 0.219177L116.571 5.28332L111.508 8.21336L111.497 8.20183Z" fill="#002B67"/>
<path d="M114.011 0L113.261 0.426818L115.971 5.12182L111.278 7.83269C111.07 7.94804 111.001 8.21336 111.116 8.42101C111.185 8.5479 111.324 8.62865 111.462 8.64018H111.485C111.566 8.64018 111.635 8.62865 111.704 8.5825L116.398 5.87163L119.107 10.5666C119.177 10.6935 119.315 10.7743 119.453 10.7858H119.476C119.557 10.7858 119.626 10.7743 119.696 10.7281C119.903 10.6128 119.972 10.3475 119.857 10.1398L117.147 5.44481L121.84 2.73394L121.414 1.98413L116.72 4.695L114.011 0Z" fill="#002B67"/>
<path d="M38.3533 134.067L37.7421 134.413L39.9562 138.243L36.1278 140.458C35.9548 140.55 35.8971 140.769 36.0009 140.942C36.0586 141.046 36.1739 141.104 36.2777 141.115H36.2892C36.3469 141.115 36.416 141.104 36.4737 141.069L40.3021 138.854L42.5161 142.684C42.5738 142.788 42.6891 142.846 42.7929 142.857H42.8044C42.8621 142.857 42.9313 142.846 42.9889 142.811C43.1619 142.719 43.2195 142.5 43.1158 142.327L40.9017 138.497L44.7302 136.282L44.3842 135.67L40.5558 137.885L38.3418 134.055L38.3533 134.067Z" fill="#002B67"/>
<path d="M180.085 30.904L183.683 27.1087C183.845 26.9357 183.845 26.6588 183.672 26.4973C183.499 26.3358 183.222 26.3358 183.06 26.5089L179.186 30.604C179.024 30.7655 179.024 31.0308 179.186 31.1923L183.06 35.2875C183.222 35.4605 183.499 35.4721 183.672 35.299C183.845 35.1375 183.856 34.8607 183.683 34.6876L180.085 30.8924V30.904Z" fill="#002B67"/>
<path d="M171.771 30.904L175.369 27.1087C175.53 26.9357 175.53 26.6588 175.357 26.4973C175.184 26.3358 174.908 26.3358 174.746 26.5089L170.872 30.604C170.71 30.7655 170.71 31.0308 170.872 31.1923L174.746 35.2875C174.908 35.4605 175.184 35.4721 175.357 35.299C175.53 35.1375 175.542 34.8607 175.369 34.6876L171.771 30.8924V30.904Z" fill="#002B67"/>
<path d="M163.457 30.904L167.055 27.1087C167.216 26.9357 167.216 26.6588 167.043 26.4973C166.87 26.3358 166.594 26.3358 166.432 26.5089L162.558 30.604C162.396 30.7655 162.396 31.0308 162.558 31.1923L166.432 35.2875C166.594 35.4605 166.87 35.4721 167.043 35.299C167.216 35.1375 167.228 34.8607 167.055 34.6876L163.457 30.8924V30.904Z" fill="#002B67"/>
<path d="M25.2883 116.268H131.85C132.015 116.268 132.149 116.402 132.149 116.568V118.229C132.149 118.394 132.015 118.529 131.85 118.529H25.2883C25.1227 118.529 24.9885 118.394 24.9885 118.229V116.568C24.9885 116.402 25.1227 116.268 25.2883 116.268Z" fill="#002B67"/>
<path d="M126.88 106.128C127.018 106.128 127.156 106.059 127.237 105.943C127.375 105.747 127.341 105.47 127.133 105.32L120.618 100.625C120.422 100.475 120.145 100.521 119.995 100.729C119.857 100.925 119.892 101.202 120.099 101.352L126.614 106.047C126.695 106.105 126.787 106.128 126.868 106.128H126.88Z" fill="#002B67"/>
<path d="M16.1093 109.623C16.1093 107.524 17.816 105.816 19.9147 105.816H32.8875C34.9862 105.816 36.6928 107.524 36.6928 109.623C36.6928 111.723 34.9862 113.43 32.8875 113.43H19.9147C17.816 113.43 16.1093 111.723 16.1093 109.623Z" fill="#E85757"/>
<path d="M2.86102e-05 120.328C2.86102e-05 119.255 0.426687 118.217 1.18776 117.456C1.94883 116.694 2.97512 116.268 4.05907 116.268H17.8852C18.9576 116.268 19.9954 116.694 20.7565 117.456C21.5176 118.217 21.9442 119.244 21.9442 120.328C21.9442 121.412 21.5176 122.439 20.7565 123.2C19.9954 123.962 18.9691 124.389 17.8852 124.389H4.05907C2.98666 124.389 1.94883 123.962 1.18776 123.2C0.426687 122.439 2.86102e-05 121.412 2.86102e-05 120.328Z" fill="#33C5F3"/>
<path d="M11.8889 129.741C11.8889 128.265 13.0881 127.065 14.5641 127.065H23.7085C25.1845 127.065 26.3838 128.265 26.3838 129.741C26.3838 131.218 25.1845 132.417 23.7085 132.417H14.5641C13.0881 132.417 11.8889 131.218 11.8889 129.741Z" fill="#FFA821"/>
<path d="M11.762 121.193C11.1393 120.697 10.6665 120.051 10.1706 119.428C10.0092 119.232 9.8593 119.036 9.69786 118.852C9.6402 118.782 9.59408 118.644 9.53642 118.552C9.4903 118.471 9.43263 118.425 9.38651 118.402C9.34038 118.379 9.29426 118.379 9.25966 118.402C9.21354 118.413 9.16741 118.436 9.13282 118.505C8.833 119.048 8.78688 119.705 8.77535 120.305C8.77535 120.524 8.77535 120.72 8.74075 120.859C8.74075 120.882 8.72922 120.916 8.71769 120.939C8.71769 120.939 8.71769 120.951 8.71769 120.963C8.71769 120.963 8.69462 120.963 8.68309 120.951C8.63697 120.928 8.57931 120.882 8.52166 120.824C8.34868 120.651 8.17572 120.478 8.00275 120.305C7.86437 120.167 7.73752 120.017 7.59914 119.867C7.32239 119.555 7.0341 119.244 6.76888 118.932C6.71123 118.863 6.60745 118.852 6.53826 118.921C6.46907 118.978 6.45755 119.082 6.52673 119.151C6.80349 119.474 7.08023 119.786 7.36852 120.097C7.5069 120.247 7.63374 120.397 7.78365 120.547C7.95662 120.732 8.1296 120.905 8.3141 121.078C8.44094 121.193 8.54471 121.262 8.62543 121.286C8.71768 121.32 8.78689 121.309 8.85607 121.286C8.92526 121.262 8.98291 121.216 9.02904 121.136C9.10976 120.986 9.14436 120.686 9.14436 120.328C9.14436 119.844 9.17894 119.324 9.36344 118.875C9.39803 118.955 9.44417 119.025 9.47876 119.071C9.6402 119.267 9.79011 119.463 9.95155 119.647C10.5281 120.363 11.0701 121.113 11.8427 121.655C11.9004 121.701 11.9465 121.689 11.9926 121.689C12.0387 121.689 12.0733 121.655 12.0964 121.62C12.1079 121.597 12.131 121.562 12.131 121.516C12.131 121.47 12.1194 121.389 12.131 121.343C12.1425 121.113 12.1656 120.813 12.1886 120.593C12.2117 120.374 12.2694 119.878 12.4193 119.498C12.5 119.301 12.6038 119.128 12.7767 119.105C12.8113 119.105 12.8344 119.117 12.8575 119.14C12.8921 119.163 12.9151 119.198 12.9382 119.244C13.0304 119.371 13.1111 119.532 13.2034 119.636C13.803 120.293 14.3911 120.951 14.9562 121.632C15.0138 121.701 15.1176 121.712 15.1868 121.655C15.256 121.597 15.2675 121.493 15.2099 121.424C14.6333 120.743 14.0452 120.074 13.4456 119.417C13.3418 119.301 13.2495 119.105 13.1457 118.978C13.0304 118.852 12.9036 118.771 12.7306 118.782C12.4423 118.817 12.2348 119.048 12.0964 119.371C11.9234 119.774 11.8773 120.317 11.8427 120.547C11.8196 120.743 11.7966 120.997 11.785 121.216L11.762 121.193Z" fill="white"/>
<path d="M31.2846 110.627C30.7306 110.627 30.2814 110.177 30.2814 109.623C30.2814 109.069 30.7306 108.619 31.2846 108.619C31.8387 108.619 32.2878 109.069 32.2878 109.623C32.2878 110.177 31.8387 110.627 31.2846 110.627Z" fill="white"/>
<path d="M26.3953 110.627C25.8413 110.627 25.3921 110.177 25.3921 109.623C25.3921 109.069 25.8413 108.619 26.3953 108.619C26.9494 108.619 27.3986 109.069 27.3986 109.623C27.3986 110.177 26.9494 110.627 26.3953 110.627Z" fill="white"/>
<path d="M21.506 110.627C20.9519 110.627 20.5028 110.177 20.5028 109.623C20.5028 109.069 20.9519 108.619 21.506 108.619C22.0601 108.619 22.5092 109.069 22.5092 109.623C22.5092 110.177 22.0601 110.627 21.506 110.627Z" fill="white"/>
</g>
<defs>
<clipPath id="clip0_1_339">
<rect width="200" height="142.857" fill="white" transform="matrix(-1 0 0 1 200 0)"/>
</clipPath>
</defs>
</svg>
