<svg width="36" height="37" viewBox="0 0 36 37" fill="none" xmlns="http://www.w3.org/2000/svg">
<path d="M0 20.7904V0.740234H19.9489C8.93233 0.740234 0 9.71792 0 20.7904Z" fill="black"/>
<path d="M17.7965 18.6221V36.7402C7.96053 36.6772 0.00500488 28.6446 0.00500488 18.7429C0.00500488 8.84115 8.01799 0.740234 17.9115 0.740234C27.8049 0.740234 35.7552 8.73615 35.8179 18.6221H17.7913H17.7965Z" fill="#FFC400"/>
<path d="M35.8232 18.6211H17.7966V19.9126H35.8232V18.6211Z" fill="black"/>
<path d="M35.8232 22.8271H17.7966V24.1187H35.8232V22.8271Z" fill="black"/>
<path d="M35.8232 27.0321H17.7966V28.3236H35.8232V27.0321Z" fill="black"/>
<path d="M35.8232 31.2374H17.7966V32.529H35.8232V31.2374Z" fill="black"/>
<path d="M35.8232 35.4424H17.7966V36.7339H35.8232V35.4424Z" fill="black"/>
</svg>
