<svg width="37" height="38" viewBox="0 0 37 38" fill="none" xmlns="http://www.w3.org/2000/svg">
<path d="M18.4039 0.740234C28.5721 0.740234 36.8131 9.02301 36.8131 19.2429H0C0 9.02301 8.24094 0.740234 18.4092 0.740234H18.4039Z" fill="#FF6400"/>
<path d="M36.8131 37.74C26.6448 37.74 18.4039 29.4572 18.4039 19.2373H36.8131V37.74Z" fill="#00CCFF"/>
<path d="M36.813 28.4918C31.7289 28.4918 27.6111 24.3477 27.6111 19.2432H36.813V28.4918Z" fill="#FF6400"/>
<path d="M0 28.4918C5.08415 28.4918 9.20194 24.3477 9.20194 19.2432H0V28.4918Z" fill="#FFC400"/>
<path d="M9.20194 19.2429C9.20194 14.133 13.3251 9.99426 18.4039 9.99426C23.4826 9.99426 27.6058 14.1383 27.6058 19.2429H9.19656H9.20194Z" fill="#FFC400"/>
</svg>
