<svg width="500" height="349" viewBox="0 0 500 349" fill="none" xmlns="http://www.w3.org/2000/svg">
<path fill-rule="evenodd" clip-rule="evenodd" d="M496.272 348.721C496.272 348.846 385.169 348.949 248.148 348.949C111.079 348.949 0 348.846 0 348.721C0 348.595 111.079 348.493 248.148 348.493C385.169 348.493 496.272 348.595 496.272 348.721Z" fill="#132529"/>
<path fill-rule="evenodd" clip-rule="evenodd" d="M21.2901 118.601C21.2901 118.601 21.4265 118.716 21.6703 118.957C21.9175 119.193 22.2609 119.568 22.7459 120.019C23.7438 120.886 25.2607 122.144 27.5072 123.221C28.077 123.47 28.6598 123.774 29.3195 123.974C29.6437 124.088 29.9766 124.203 30.3156 124.321C30.6652 124.409 31.0217 124.498 31.3852 124.59C32.1078 124.805 32.8907 124.873 33.6903 125.012C34.094 125.054 34.5073 125.07 34.9267 125.1C35.3461 125.142 35.7743 125.142 36.2094 125.122C39.6828 125.116 43.6499 124.013 47.1888 121.526L47.2543 121.479L47.3321 121.494C50.3458 122.065 53.6234 122.685 57.0645 123.336L56.8705 123.674C55.1648 121.719 53.3595 119.651 51.5001 117.52L51.3883 117.392L51.4896 117.248C52.394 115.97 53.204 114.582 53.8253 113.072C54.4212 111.554 54.8555 109.944 55.0879 108.273C55.4908 104.933 55.0862 101.361 53.6427 98.1245C51.8103 93.9189 48.4986 90.5294 44.639 88.5913C40.7628 86.6864 36.4148 86.0905 32.5124 86.8594C30.5647 87.2299 28.6921 87.8241 27.0406 88.7355C25.3795 89.6163 23.8652 90.6806 22.6105 91.9292C20.0205 94.3584 18.3839 97.3477 17.5048 100.22C16.6074 103.103 16.4912 105.893 16.7874 108.268C17.0653 110.658 17.7967 112.625 18.4957 114.156C18.6818 114.535 18.8584 114.894 19.0235 115.231C19.2 115.561 19.4001 115.851 19.567 116.131C19.9026 116.69 20.1979 117.158 20.4836 117.501C20.7414 117.844 20.9432 118.113 21.0944 118.314C21.2299 118.499 21.2963 118.597 21.2901 118.601C21.284 118.606 21.2063 118.519 21.0586 118.343C20.8987 118.149 20.6837 117.888 20.4111 117.556C20.1114 117.22 19.8021 116.759 19.4525 116.203C19.2787 115.925 19.0707 115.637 18.8872 115.307C18.7142 114.97 18.5307 114.611 18.3367 114.232C17.6053 112.699 16.8407 110.719 16.5349 108.3C16.2107 105.897 16.3042 103.064 17.1973 100.127C18.0702 97.2017 19.7199 94.1461 22.3492 91.6566C24.9121 89.1322 28.4352 87.1705 32.4364 86.447C36.4226 85.651 40.8703 86.2478 44.8391 88.1928C48.7922 90.1711 52.1834 93.6366 54.0595 97.9427C55.5379 101.257 55.9504 104.914 55.5344 108.33C55.2941 110.04 54.8485 111.688 54.2351 113.239C53.5972 114.783 52.7662 116.202 51.8383 117.506L51.8269 117.235C53.6811 119.371 55.4803 121.444 57.1816 123.404L57.5721 123.854L56.9876 123.74C53.5483 123.076 50.2742 122.442 47.2622 121.86L47.4046 121.829C43.7862 124.348 39.7396 125.444 36.2129 125.424C35.7708 125.44 35.3365 125.436 34.911 125.391C34.4854 125.356 34.066 125.336 33.6571 125.291C32.8471 125.143 32.0545 125.066 31.324 124.842C30.9561 124.746 30.5961 124.65 30.244 124.558C29.9006 124.435 29.5659 124.314 29.2382 124.196C28.5733 123.986 27.9861 123.672 27.4146 123.412C25.1567 122.294 23.6485 120.999 22.6699 120.101C22.1945 119.635 21.8634 119.244 21.6283 118.995C21.3976 118.742 21.2901 118.601 21.2901 118.601Z" fill="#132529"/>
<path fill-rule="evenodd" clip-rule="evenodd" d="M35.7454 101.731L39.0309 100.642L42.3164 99.554L40.9166 106.333L39.1288 104.743L31.4367 113.384L29.8394 111.964L37.5324 103.322L35.7454 101.731Z" fill="#132529"/>
<path fill-rule="evenodd" clip-rule="evenodd" d="M170.302 42.9421C170.302 66.6588 151.077 85.8842 127.36 85.8842C103.643 85.8842 84.4179 66.6588 84.4179 42.9421C84.4179 19.2263 103.643 0 127.36 0C151.077 0 170.302 19.2263 170.302 42.9421Z" fill="#388AF7"/>
<path fill-rule="evenodd" clip-rule="evenodd" d="M127.36 13.3177C111.025 13.3177 97.7355 26.6073 97.7355 42.9421C97.7355 59.2779 111.025 72.5675 127.36 72.5675C143.695 72.5675 156.984 59.2779 156.984 42.9421C156.984 26.6073 143.695 13.3177 127.36 13.3177ZM127.36 78.6841C107.652 78.6841 91.6189 62.6507 91.6189 42.9421C91.6189 23.2344 107.652 7.20105 127.36 7.20105C147.068 7.20105 163.101 23.2344 163.101 42.9421C163.101 62.6507 147.068 78.6841 127.36 78.6841Z" fill="#FFFFFE"/>
<path fill-rule="evenodd" clip-rule="evenodd" d="M127.121 34.9521C123.235 34.9521 120.073 38.1135 120.073 41.9984C120.073 45.8842 123.235 49.0447 127.121 49.0447C131.006 49.0447 134.167 45.8842 134.167 41.9984C134.167 38.1135 131.006 34.9521 127.121 34.9521ZM127.121 55.1613C119.862 55.1613 113.957 49.2571 113.957 41.9984C113.957 34.7406 119.862 28.8354 127.121 28.8354C134.379 28.8354 140.284 34.7406 140.284 41.9984C140.284 49.2571 134.379 55.1613 127.121 55.1613Z" fill="#FFFFFE"/>
<path fill-rule="evenodd" clip-rule="evenodd" d="M127.121 41.9984H110.481L113.383 47.1311L74.2198 65.0808L75.5418 67.2827L114.835 49.5428L117.528 54.6406L127.121 41.9984Z" fill="#334F55"/>
<path fill-rule="evenodd" clip-rule="evenodd" d="M74.5545 65.054L74.1057 64.6863C71.8858 62.8727 68.8624 62.3934 66.1903 63.4316L51.0242 69.3231L60.0238 72.3723L57.3528 81.9361L71.4969 75.4516C74.6872 73.9892 76.5422 70.6096 76.0635 67.1324L74.5545 65.054Z" fill="#132529"/>
<path fill-rule="evenodd" clip-rule="evenodd" d="M361.352 96.7639C361.352 97.8685 362.247 98.7639 363.352 98.7639H365.184C366.289 98.7639 367.184 97.8685 367.184 96.7639V50.6566C367.184 49.552 366.289 48.6566 365.184 48.6566H363.352C362.247 48.6566 361.352 49.552 361.352 50.6566V96.7639Z" fill="#E85757"/>
<path fill-rule="evenodd" clip-rule="evenodd" d="M387.856 96.7642C387.856 97.8687 388.751 98.7642 389.856 98.7642H391.689C392.793 98.7642 393.689 97.8687 393.689 96.7642V46.5911C393.689 45.4865 392.793 44.5911 391.689 44.5911H389.856C388.751 44.5911 387.856 45.4865 387.856 46.5911V96.7642Z" fill="#E85757"/>
<path fill-rule="evenodd" clip-rule="evenodd" d="M415.31 96.764C415.31 97.8686 416.205 98.764 417.31 98.764H419.142C420.246 98.764 421.142 97.8686 421.142 96.764V39.7124C421.142 38.6078 420.246 37.7124 419.142 37.7124H417.31C416.205 37.7124 415.31 38.6078 415.31 39.7124V96.764Z" fill="#E85757"/>
<path fill-rule="evenodd" clip-rule="evenodd" d="M402.413 96.764C402.413 97.8686 403.309 98.764 404.413 98.764H406.246C407.35 98.764 408.246 97.8686 408.246 96.764V76.3657C408.246 75.2612 407.35 74.3657 406.246 74.3657H404.413C403.309 74.3657 402.413 75.2612 402.413 76.3657V96.764Z" fill="#00CCFF"/>
<path fill-rule="evenodd" clip-rule="evenodd" d="M368.148 96.764C368.148 97.8685 369.044 98.764 370.148 98.764H371.981C373.086 98.764 373.981 97.8685 373.981 96.764V45.2889C373.981 44.1844 373.086 43.2889 371.981 43.2889H370.148C369.044 43.2889 368.148 44.1844 368.148 45.2889V96.764Z" fill="#002B67"/>
<path fill-rule="evenodd" clip-rule="evenodd" d="M395.128 96.764C395.128 97.8685 396.023 98.764 397.128 98.764H398.959C400.064 98.764 400.959 97.8685 400.959 96.764V33.6665C400.959 32.5619 400.064 31.6665 398.959 31.6665H397.128C396.023 31.6665 395.128 32.5619 395.128 33.6665V96.764Z" fill="#002B67"/>
<path fill-rule="evenodd" clip-rule="evenodd" d="M430.35 96.764C430.35 97.8685 431.245 98.764 432.35 98.764H434.182C435.287 98.764 436.182 97.8685 436.182 96.764V33.6665C436.182 32.5619 435.287 31.6665 434.182 31.6665H432.35C431.245 31.6665 430.35 32.5619 430.35 33.6665V96.764Z" fill="#00CCFF"/>
<path fill-rule="evenodd" clip-rule="evenodd" d="M423.099 96.7639C423.099 97.8685 423.995 98.7639 425.099 98.7639H426.932C428.036 98.7639 428.932 97.8685 428.932 96.7639V20.4161C428.932 19.3116 428.036 18.4161 426.932 18.4161H425.099C423.995 18.4161 423.099 19.3116 423.099 20.4161V96.7639Z" fill="#002B67"/>
<path fill-rule="evenodd" clip-rule="evenodd" d="M375.283 96.7639C375.283 97.8685 376.178 98.7639 377.283 98.7639H379.115C380.219 98.7639 381.115 97.8685 381.115 96.7639V65.5549C381.115 64.4504 380.219 63.5549 379.115 63.5549H377.283C376.178 63.5549 375.283 64.4504 375.283 65.5549V96.7639Z" fill="#00CCFF"/>
<path fill-rule="evenodd" clip-rule="evenodd" d="M444.526 101.803C444.526 101.929 423.716 102.031 398.053 102.031C372.382 102.031 351.578 101.929 351.578 101.803C351.578 101.678 372.382 101.576 398.053 101.576C423.716 101.576 444.526 101.678 444.526 101.803Z" fill="#132529"/>
<path fill-rule="evenodd" clip-rule="evenodd" d="M339.586 91.1855H343.145V89.8512H339.586V91.1855Z" fill="#132529"/>
<path fill-rule="evenodd" clip-rule="evenodd" d="M339.586 73.3557H343.145V72.0205H339.586V73.3557Z" fill="#132529"/>
<path fill-rule="evenodd" clip-rule="evenodd" d="M339.766 56.5759H343.325V55.2407H339.766V56.5759Z" fill="#132529"/>
<path d="M338.774 201.247H157.497C152.25 201.247 147.997 196.993 147.997 191.747V55.0978C147.997 49.8511 152.25 45.5978 157.497 45.5978H338.774C344.021 45.5978 348.274 49.8511 348.274 55.0978V191.747C348.274 196.993 344.021 201.247 338.774 201.247Z" fill="#FFFFFE" stroke="black"/>
<path fill-rule="evenodd" clip-rule="evenodd" d="M200.154 112.217C200.154 112.731 199.737 113.146 199.225 113.146C198.711 113.146 198.296 112.731 198.296 112.217C198.296 111.704 198.711 111.288 199.225 111.288C199.737 111.288 200.154 111.704 200.154 112.217Z" fill="black"/>
<path fill-rule="evenodd" clip-rule="evenodd" d="M232.669 92.9018C232.669 93.4141 232.254 93.8308 231.74 93.8308C231.228 93.8308 230.811 93.4141 230.811 92.9018C230.811 92.3895 231.228 91.9728 231.74 91.9728C232.254 91.9728 232.669 92.3895 232.669 92.9018Z" fill="#132529"/>
<path fill-rule="evenodd" clip-rule="evenodd" d="M265.185 112.047C265.185 112.56 264.77 112.976 264.256 112.976C263.744 112.976 263.327 112.56 263.327 112.047C263.327 111.533 263.744 111.118 264.256 111.118C264.77 111.118 265.185 111.533 265.185 112.047Z" fill="#132529"/>
<path fill-rule="evenodd" clip-rule="evenodd" d="M297.634 92.4412C297.634 92.9535 297.219 93.3702 296.705 93.3702C296.193 93.3702 295.776 92.9535 295.776 92.4412C295.776 91.9277 296.193 91.5122 296.705 91.5122C297.219 91.5122 297.634 91.9277 297.634 92.4412Z" fill="#132529"/>
<path fill-rule="evenodd" clip-rule="evenodd" d="M330.216 112.07C330.216 112.582 329.8 112.999 329.287 112.999C328.775 112.999 328.358 112.582 328.358 112.07C328.358 111.557 328.775 111.141 329.287 111.141C329.8 111.141 330.216 111.557 330.216 112.07Z" fill="#132529"/>
<path d="M187.612 131.921C194.115 138.424 196.438 139.817 198.76 141.675C217.487 156.657 228.334 141.056 231.74 130.991C234.527 123.559 242.796 108.509 253.572 107.766C264.349 107.023 272.153 120.772 277.727 126.811C283.301 132.85 292.591 144.462 296.772 146.32C305.261 150.094 310.242 139.353 313.959 134.243C317.675 129.134 323.342 124.488 325.571 124.488" stroke="#E85757" stroke-width="2" stroke-linecap="round" stroke-linejoin="round"/>
<path fill-rule="evenodd" clip-rule="evenodd" d="M177.881 66.5849C177.881 67.0856 178.286 67.4915 178.787 67.4915H209.557C210.058 67.4915 210.464 67.0856 210.464 66.5849V66.5849C210.464 66.0842 210.058 65.6783 209.557 65.6783H178.787C178.286 65.6783 177.881 66.0842 177.881 66.5849V66.5849Z" fill="#132529"/>
<path fill-rule="evenodd" clip-rule="evenodd" d="M177.881 70.8272C177.881 71.3279 178.286 71.7338 178.787 71.7338H193.075C193.575 71.7338 193.981 71.3279 193.981 70.8272V70.8272C193.981 70.3265 193.575 69.9207 193.075 69.9207H178.787C178.286 69.9207 177.881 70.3265 177.881 70.8272V70.8272Z" fill="#132529"/>
<path fill-rule="evenodd" clip-rule="evenodd" d="M147.497 53.115H348.774V50.5314C348.774 45.0085 344.297 40.5314 338.774 40.5314H157.497C151.974 40.5314 147.497 45.0085 147.497 50.5314V53.115Z" fill="#132529"/>
<path fill-rule="evenodd" clip-rule="evenodd" d="M401.166 348.815L396.438 348.731C396.449 348.682 396.459 348.634 396.472 348.585L401.163 348.711L401.167 348.811L401.166 348.815Z" fill="#F4C5C4"/>
<path d="M199.225 112.411V184.875" stroke="black" stroke-linecap="round" stroke-linejoin="round"/>
<path d="M231.74 92.9019V184.875" stroke="black" stroke-linecap="round" stroke-linejoin="round"/>
<path d="M264.256 112.411V184.875" stroke="black" stroke-linecap="round" stroke-linejoin="round"/>
<path d="M296.772 92.9019V184.875" stroke="black" stroke-linecap="round" stroke-linejoin="round"/>
<path d="M329.287 112.411V184.875" stroke="black" stroke-linecap="round" stroke-linejoin="round"/>
<circle cx="231.74" cy="92.9018" r="2.53706" stroke="#E0565F" stroke-width="0.5"/>
<path d="M88.6967 210.522C79.5107 194.61 84.9626 174.259 100.874 165.073C116.786 155.887 137.138 161.339 146.324 177.25L88.6967 210.522Z" fill="#FFA821"/>
<path d="M86.5275 141.147C86.5275 141.147 100.321 146.97 109.565 138.527C119.319 129.625 113.896 123.437 110.257 123.059C99.4985 121.945 86.5275 141.147 86.5275 141.147Z" fill="#002B67"/>
<path d="M147.75 228.435L163.422 258.373C167.17 265.528 169.871 273.12 171.29 280.981C172.688 288.755 173.015 296.718 172.011 304.652L170.977 312.797L170.373 319.836L156.289 318.62L156.893 311.575L157.271 303.371C157.562 296.988 156.791 290.655 155.175 284.548C153.581 278.521 150.989 272.785 147.634 267.457L129.611 238.873L124.392 229.803L142.531 219.358L147.75 228.428V228.435Z" fill="#002B67"/>
<path d="M123.81 244.725L122.442 270.958C122.041 278.696 119.668 286.026 115.352 292.089C111.123 298.021 105.402 302.949 98.3777 305.795L89.5265 309.384L83.1138 312.353L77.1815 299.521L83.6015 296.551L92.0669 292.133C96.0557 290.051 99.1201 286.783 101.275 283.041C103.356 279.431 104.215 275.209 104.026 270.878L102.876 244.638L102.92 234.171L123.854 234.258L123.81 244.725Z" fill="#002B67"/>
<path d="M168.801 333.491L169.434 329.83L169.849 324.865L159.913 324.036L159.499 329L159.528 335.784L159.244 339.241L173.823 342.932L177.026 343.98L179.115 337.582L175.92 336.533L168.801 333.491Z" fill="#00CCFF"/>
<path d="M177.921 348.864L159.004 343.704C158.429 343.544 158.086 342.954 158.247 342.379C158.407 341.804 158.996 341.462 159.571 341.622L178.489 346.783C179.064 346.943 179.406 347.532 179.246 348.107C179.086 348.683 178.496 349.025 177.921 348.864Z" fill="#002B67"/>
<path d="M170.096 329.633C169.238 329.691 168.379 329.524 167.52 329.567C166.923 329.596 166.413 329.138 166.384 328.541C166.355 327.944 166.814 327.435 167.411 327.406C168.255 327.362 169.107 327.529 169.958 327.471C170.555 327.427 171.072 327.886 171.108 328.483C171.145 329.08 170.693 329.589 170.096 329.633" fill="#002B67"/>
<path d="M169.696 333.557C168.801 333.739 167.913 333.986 167.01 334.146C166.421 334.256 165.86 333.862 165.758 333.273C165.649 332.683 166.042 332.123 166.632 332.014C167.52 331.853 168.386 331.613 169.274 331.431C169.856 331.315 170.431 331.693 170.548 332.276C170.664 332.858 170.286 333.433 169.703 333.549" fill="#002B67"/>
<path d="M69.9609 316.539L73.382 315.076L77.7712 312.725L73.0617 303.939L68.6653 306.298L62.995 310.017L59.9379 311.655L64.7783 325.9L65.6445 329.153L72.1518 327.421L71.2857 324.167L69.9609 316.539Z" fill="#00CCFF"/>
<path d="M62.0269 332.559L56.0582 313.881C55.8762 313.314 56.1892 312.702 56.757 312.52C57.3247 312.338 57.9361 312.651 58.1181 313.219L64.0868 331.897C64.2688 332.464 63.9558 333.076 63.388 333.258C62.8203 333.44 62.2088 333.127 62.0269 332.559Z" fill="#002B67"/>
<path d="M73.9059 315.527C73.3891 314.835 73.0615 314.027 72.5593 313.336C72.2099 312.855 72.3191 312.171 72.7995 311.829C73.2872 311.48 73.9641 311.589 74.3135 312.069C74.8085 312.753 75.136 313.561 75.6456 314.245C76.0022 314.719 75.9076 315.403 75.4272 315.76C74.9468 316.116 74.2699 316.014 73.9132 315.534" fill="#002B67"/>
<path d="M70.3975 317.325C69.7569 316.67 69.0654 316.065 68.4395 315.396C68.0318 314.959 68.0537 314.275 68.4904 313.867C68.9272 313.46 69.6113 313.481 70.019 313.918C70.6304 314.573 71.3146 315.17 71.9406 315.818C72.3628 316.24 72.3555 316.924 71.926 317.346C71.5039 317.761 70.8124 317.754 70.3975 317.332" fill="#002B67"/>
<path d="M146.869 227.03L122.784 244.681L102.898 245.656L100.467 233.661L142.153 219.329L146.869 227.03Z" fill="#002B67"/>
<path d="M109.398 204.24L125.186 195.25C125.419 195.119 125.55 194.857 125.513 194.588C125.477 194.319 125.28 194.107 125.018 194.042L104.033 189.151C103.684 189.071 103.327 189.289 103.247 189.638C103.167 189.988 103.385 190.344 103.735 190.424L123.097 194.937L107.119 204.036C106.879 204.174 106.748 204.451 106.799 204.727C106.85 205.004 107.068 205.215 107.345 205.251L125.702 208.017L111.276 216.097C111.035 216.228 110.904 216.497 110.948 216.767C110.992 217.036 111.203 217.254 111.472 217.305L130.332 220.996C130.688 221.068 131.031 220.836 131.103 220.479C131.169 220.122 130.943 219.78 130.587 219.715L113.474 216.366L128.017 208.229C128.257 208.09 128.388 207.814 128.337 207.537C128.286 207.26 128.068 207.049 127.791 207.006L109.405 204.24H109.398Z" fill="#002B67"/>
<path d="M139.933 164.672C145.53 168.093 150.254 168.952 154.163 168.129C157.781 167.372 160.678 165.182 162.92 162.343C166.348 158.005 168.233 152.16 168.743 147.428C168.779 147.072 169.107 146.81 169.463 146.846C169.82 146.882 170.082 147.21 170.046 147.567C169.514 152.509 167.527 158.623 163.946 163.151C161.515 166.23 158.356 168.581 154.432 169.403C150.269 170.277 145.217 169.425 139.256 165.786C138.95 165.596 138.848 165.196 139.038 164.883C139.227 164.577 139.627 164.475 139.933 164.665" fill="#002B67"/>
<path d="M171.756 141.067C172.025 136.99 173.073 132.332 175.701 129.078C176.145 128.525 177.077 127.506 178.023 127.062C178.86 126.669 179.712 126.676 180.396 127.419C180.818 127.87 181.036 128.445 181.109 129.064C181.204 129.864 181.051 130.738 180.869 131.437C180.243 133.81 179.362 136.088 178.802 138.475C178.722 138.825 178.365 139.043 178.016 138.963C177.666 138.883 177.448 138.526 177.528 138.177C178.088 135.775 178.984 133.482 179.602 131.102C179.726 130.629 179.843 130.068 179.828 129.515C179.821 129.064 179.733 128.627 179.435 128.299C179.188 128.037 178.875 128.096 178.576 128.234C177.812 128.591 177.077 129.442 176.72 129.886C174.26 132.936 173.321 137.318 173.066 141.139C173.044 141.496 172.731 141.773 172.367 141.751C172.003 141.729 171.734 141.416 171.756 141.052" fill="#002B67"/>
<path d="M174.537 143.389C175.054 142.151 175.556 140.914 176.269 139.778C176.99 138.636 178.227 137.711 179.472 137.34C180.382 137.071 181.292 137.1 182.034 137.493C182.827 137.908 183.475 138.745 183.686 140.179C183.868 141.431 183.446 142.734 182.675 143.92C181.597 145.594 179.85 147.035 178.416 147.771C177.863 148.054 176.895 148.426 176.022 148.469C175.294 148.506 174.631 148.331 174.187 147.858C173.94 147.596 173.947 147.181 174.209 146.933C174.471 146.686 174.886 146.693 175.134 146.955C175.33 147.159 175.636 147.181 175.949 147.159C176.633 147.123 177.383 146.824 177.82 146.599C179.086 145.951 180.629 144.677 181.583 143.199C182.165 142.29 182.536 141.307 182.398 140.353C182.267 139.458 181.932 138.898 181.437 138.636C180.979 138.395 180.418 138.417 179.858 138.577C178.897 138.861 177.943 139.574 177.39 140.455C176.713 141.525 176.247 142.704 175.76 143.869C175.621 144.204 175.236 144.364 174.908 144.218C174.573 144.08 174.42 143.694 174.551 143.367" fill="#002B67"/>
<path d="M183.148 141.933C183.723 141.853 184.327 141.758 184.909 141.824C186.947 142.042 187.792 144.255 187.355 146.024C187.005 147.428 185.055 149.678 182.995 150.675C181.459 151.417 179.894 151.461 178.802 150.311C178.555 150.049 178.562 149.634 178.824 149.386C179.086 149.139 179.501 149.146 179.748 149.408C180.447 150.143 181.452 149.969 182.427 149.496C184.13 148.673 185.797 146.868 186.081 145.711C186.343 144.655 185.979 143.258 184.764 143.127C184.29 143.076 183.788 143.163 183.322 143.236C182.966 143.287 182.631 143.032 182.587 142.675C182.536 142.319 182.791 141.984 183.148 141.94" fill="#002B67"/>
<path d="M182.762 156.622C181.947 161.237 179.807 165.633 177.572 169.702C172.346 179.23 159.513 195.142 137.261 189.129C136.912 189.035 136.708 188.678 136.803 188.329C136.898 187.979 137.254 187.776 137.604 187.87C159.055 193.664 171.392 178.262 176.429 169.076C178.598 165.131 180.687 160.873 181.473 156.396C181.539 156.04 181.874 155.799 182.23 155.865C182.587 155.93 182.827 156.265 182.762 156.622" fill="#002B67"/>
<path d="M108.808 137.441C113.219 142.253 114.02 146.78 112.703 150.15C111.37 153.564 107.848 155.864 103.429 156.126C101.944 156.214 100.358 155.835 98.96 155.362C95.6918 154.248 93.6391 152.145 92.096 149.59C90.6111 147.144 89.6066 144.276 88.4056 141.517C88.26 141.19 88.4129 140.804 88.7405 140.659C89.0753 140.513 89.4611 140.659 89.5994 140.993C90.7785 143.694 91.7539 146.511 93.2097 148.913C94.6 151.213 96.4415 153.12 99.3822 154.124C100.62 154.547 102.032 154.903 103.349 154.823C107.2 154.59 110.322 152.654 111.48 149.677C112.659 146.656 111.793 142.638 107.833 138.329C107.585 138.067 107.607 137.652 107.869 137.405C108.139 137.165 108.546 137.179 108.794 137.441" fill="#002B67"/>
<path d="M86.2218 141.147C86.2218 141.147 95.8154 132.63 98.5086 129.631C106.479 120.744 91.2733 112.832 87.1826 124.929C84.9189 131.626 86.0034 136.91 86.2291 141.147" fill="#002B67"/>
<path d="M92.853 148.745C88.311 146.358 82.6989 142.828 80.6172 138.126C79.5909 135.811 80.3406 132.47 83.587 133.889C86.1346 135.003 87.4375 137.441 88.6458 139.72C89.9269 142.129 92.8457 148.753 92.8457 148.753" fill="#002B67"/>
<path d="M68.6361 238.392C61.4519 228.966 58.8533 215.238 61.0515 203.468C63.4826 190.49 71.9553 178.414 84.2857 174.382C90.1598 172.46 96.4706 174.84 98.7343 180.613C100.991 186.356 97.7662 191.953 92.5982 195.28C84.7224 200.353 80.7409 202.529 78.2151 209.102C75.3545 216.541 74.8086 225.057 78.3607 232.125C78.5281 232.453 78.3898 232.853 78.0622 233.021C77.7347 233.188 77.3344 233.05 77.167 232.722C73.4474 225.327 73.9788 216.41 76.9704 208.622C79.5981 201.78 83.6816 199.443 91.8776 194.159C96.4997 191.182 99.5131 186.232 97.4969 181.093C95.4879 175.99 89.8832 173.945 84.6933 175.641C72.8069 179.528 64.691 191.203 62.3472 203.708C60.2144 215.122 62.7184 228.442 69.6843 237.584C69.9099 237.876 69.8517 238.29 69.5605 238.516C69.2694 238.742 68.8545 238.684 68.6288 238.392" fill="#002B67"/>
<path d="M83.2592 240.715C84.0962 240.657 84.9697 240.606 85.8141 240.46C87.1461 240.227 88.4054 239.769 89.388 238.757C90.9311 237.177 90.2688 234.411 88.4709 233.414C87.4154 232.832 85.996 232.912 84.8678 233.057C83.1063 233.283 81.2138 233.705 79.5178 234.28C79.1684 234.397 78.9865 234.775 79.1029 235.125C79.2194 235.474 79.5979 235.656 79.9473 235.54C81.5632 234.994 83.3611 234.593 85.0425 234.375C85.916 234.266 87.0151 234.127 87.8303 234.579C88.9294 235.183 89.3807 236.864 88.4417 237.832C87.6629 238.633 86.6511 238.975 85.5957 239.157C84.4165 239.361 83.1718 239.368 82.0509 239.499C81.7816 239.528 81.636 239.659 81.5486 239.783C81.4613 239.907 81.4031 240.052 81.4176 240.227C81.4176 240.329 81.454 240.467 81.5414 240.613C81.6069 240.715 81.767 240.868 81.8325 240.97C81.949 241.152 82.0654 241.326 82.1892 241.501C82.6041 242.076 83.0408 242.629 83.514 243.153C83.8488 243.524 84.1909 243.881 84.5184 244.245C85.2027 245.002 86.3381 246.356 86.8258 247.732C87.0952 248.481 87.1752 249.231 86.7093 249.843C86.571 250.025 86.3382 250.075 86.1052 250.09C85.7777 250.119 85.4283 250.054 85.1662 249.952C84.4092 249.668 83.7323 249.093 83.099 248.46C82.393 247.754 81.7452 246.967 81.1192 246.341C80.7116 245.927 80.333 245.483 79.9327 245.06C79.9036 245.031 79.6343 244.704 79.5615 244.645C79.2485 244.369 78.9355 244.493 78.8554 244.529C78.6735 244.609 78.5716 244.718 78.4988 244.82C78.3969 244.98 78.3605 245.155 78.3969 245.351C78.4187 245.49 78.5134 245.686 78.6953 245.868C78.8191 245.992 79.0301 246.138 79.1102 246.254C79.4523 246.734 79.7653 247.259 80.0565 247.775C80.5296 248.605 81.141 249.522 81.4831 250.483C81.7815 251.298 81.8762 252.15 81.4176 252.994C81.3084 253.191 81.1337 253.235 80.9445 253.227C80.7261 253.22 80.5005 253.147 80.2967 253.06C79.0228 252.55 78.2294 251.116 77.4797 249.995C77.1595 249.522 76.8319 249.042 76.5771 248.525C76.4752 248.329 76.3879 248.117 76.286 247.921C76.2278 247.819 76.0894 247.535 76.0603 247.499C75.7619 247.113 75.3907 247.237 75.267 247.288C75.2087 247.31 74.721 247.521 74.8957 248.11C75.2961 249.479 76.0312 251.029 76.3369 252.558C76.6063 253.882 76.5407 255.193 75.4271 256.284C74.8957 256.808 74.2625 256.605 73.6875 256.219C72.9377 255.709 72.2826 254.865 71.9405 254.232C70.3173 251.196 69.5676 247.36 70.674 244.041C70.8341 243.561 71.0234 242.782 71.3145 242.134C71.4601 241.814 71.6057 241.523 71.8313 241.377C72.137 241.173 72.2171 240.759 72.0133 240.453C71.8095 240.147 71.3946 240.067 71.0889 240.271C70.6958 240.533 70.361 241.021 70.099 241.588C69.7933 242.28 69.5822 243.102 69.4075 243.619C68.1846 247.28 68.978 251.517 70.7613 254.858C71.2708 255.811 72.3773 257.129 73.5492 257.667C74.4954 258.097 75.4926 258.082 76.3515 257.238C77.7491 255.869 77.9674 254.254 77.6836 252.594C78.2804 253.322 78.9574 253.962 79.7872 254.297C80.7771 254.698 81.9562 254.749 82.5677 253.642C83.2373 252.434 83.15 251.211 82.7205 250.039C82.6987 249.988 82.6841 249.937 82.6623 249.879C83.2956 250.454 83.9652 250.942 84.6858 251.211C85.1954 251.4 85.9014 251.502 86.5201 251.386C87.0151 251.291 87.4518 251.058 87.7503 250.658C88.4927 249.69 88.4854 248.496 88.0633 247.295C87.5173 245.752 86.2581 244.216 85.4865 243.364C85.1517 243 84.8096 242.636 84.482 242.273C84.0453 241.785 83.6377 241.275 83.2519 240.737L83.2592 240.715Z" fill="#002B67"/>
<path d="M186.197 146.62C186.641 146.649 187.129 146.824 187.464 147.122C189.007 148.491 188.665 150.594 187.58 152.094C186.663 153.368 184.982 154.292 183.424 154.278C182.754 154.27 182.157 154.059 181.51 153.928C181.153 153.863 180.927 153.513 180.993 153.164C181.058 152.807 181.408 152.582 181.757 152.647C182.325 152.756 182.849 152.96 183.431 152.967C184.596 152.982 185.833 152.276 186.517 151.33C187.223 150.354 187.595 148.993 186.597 148.105C186.474 147.996 186.284 147.945 186.117 147.93C185.76 147.908 185.484 147.603 185.506 147.239C185.528 146.882 185.833 146.606 186.197 146.627" fill="#002B67"/>
<path d="M76.0241 124.42C73.804 121.923 71.0963 119.696 69.2183 116.922C69.0145 116.624 69.0946 116.216 69.393 116.013C69.6915 115.809 70.0991 115.889 70.3029 116.187C72.1517 118.917 74.8158 121.101 76.9995 123.554C77.2397 123.823 77.2178 124.238 76.9485 124.478C76.6792 124.718 76.2643 124.696 76.0241 124.427" fill="#002B67"/>
<path d="M70.9872 133.089C65.9357 131.808 60.8041 130.141 55.6943 129.194C55.3376 129.129 55.1047 128.787 55.1702 128.43C55.2357 128.073 55.5778 127.841 55.9345 127.906C61.0734 128.852 66.2341 130.534 71.3075 131.822C71.6569 131.909 71.868 132.266 71.7807 132.615C71.6933 132.965 71.3366 133.176 70.9872 133.089" fill="#002B67"/>
<path d="M72.0207 142.443C68.5487 143.302 64.9092 144.459 61.51 145.544C61.1679 145.653 60.7966 145.464 60.6874 145.121C60.5783 144.779 60.7675 144.408 61.1096 144.299C64.538 143.2 68.1993 142.035 71.7077 141.176C72.0571 141.089 72.4138 141.307 72.5011 141.657C72.5885 142.006 72.3701 142.363 72.0207 142.45" fill="#002B67"/>
<path d="M44.6958 279.525L39.2948 285.232C39.0474 285.494 39.0619 285.902 39.3239 286.149C39.5787 286.397 39.9936 286.382 40.2338 286.12L46.0569 279.969C46.2898 279.722 46.2898 279.329 46.0569 279.081L40.2338 272.931C39.9863 272.669 39.5787 272.661 39.3239 272.902C39.0619 273.149 39.0546 273.557 39.2948 273.819L44.6958 279.525V279.525Z" fill="#002B67"/>
<path d="M57.1791 279.525L51.7781 285.232C51.5306 285.494 51.5452 285.902 51.8073 286.149C52.062 286.397 52.4769 286.382 52.7171 286.12L58.5402 279.969C58.7732 279.722 58.7732 279.329 58.5402 279.081L52.7171 272.931C52.4697 272.669 52.062 272.661 51.8073 272.902C51.5452 273.149 51.5379 273.557 51.7781 273.819L57.1791 279.525V279.525Z" fill="#002B67"/>
<path d="M69.6697 279.525L64.2688 285.232C64.0213 285.494 64.0358 285.902 64.2979 286.149C64.5526 286.397 64.9675 286.382 65.2077 286.12L71.0309 279.969C71.2638 279.722 71.2638 279.329 71.0309 279.081L65.2077 272.931C64.9603 272.669 64.5526 272.661 64.2979 272.902C64.0358 273.149 64.0286 273.557 64.2688 273.819L69.6697 279.525V279.525Z" fill="#002B67"/>
<path d="M278.747 315.611C279.363 306.677 281.285 301.823 284.368 297.756C286.907 294.391 290.495 293.722 293.88 295.053C298.766 296.975 303.273 303.22 303.273 311.616C303.273 324.348 298.806 337.88 291.144 348.146C290.954 348.402 290.593 348.454 290.337 348.264C290.082 348.074 290.029 347.713 290.219 347.457C297.736 337.382 302.125 324.112 302.125 311.616C302.125 303.797 298.019 297.926 293.466 296.129C290.554 294.981 287.477 295.565 285.293 298.451C281.607 303.325 279.691 309.373 279.691 322.551C279.691 323.056 279.219 323.128 279.193 323.128C279.127 323.135 278.642 323.174 278.543 322.662C278.543 322.636 278.504 322.19 278.425 321.396C277.632 313.82 271.827 272.659 234.332 258.333C221.082 253.269 203.181 259.573 205.182 276.647C205.877 282.558 209.052 287.536 213.158 291.826C217.324 296.188 222.447 299.848 226.986 303.062C234.831 308.632 244.467 314.699 252.719 321.882C261.049 329.136 267.963 337.526 270.278 347.66C270.351 347.969 270.154 348.284 269.846 348.349C269.537 348.421 269.229 348.225 269.15 347.916C266.887 338.018 260.098 329.838 251.958 322.748C243.732 315.591 234.129 309.55 226.31 304C221.719 300.74 216.537 297.034 212.319 292.62C208.042 288.14 204.756 282.945 204.034 276.779C201.915 258.733 220.741 251.905 234.739 257.251C267.018 269.583 276.208 301.482 278.753 315.598" fill="#002B67"/>
<path d="M277.094 347.805C277.31 321.429 254.385 289.655 231.466 278.937C231.177 278.805 230.836 278.93 230.699 279.219C230.567 279.507 230.692 279.848 230.974 279.986C253.539 290.534 276.143 321.823 275.933 347.798C275.933 348.12 276.182 348.375 276.503 348.382C276.818 348.382 277.081 348.126 277.081 347.811" fill="#002B67"/>
<path d="M288.317 316.785C286.526 323.771 285.051 330.396 284.25 337.559C284.211 337.874 284.44 338.162 284.762 338.195C285.077 338.228 285.365 337.998 285.398 337.683C286.192 330.573 287.661 324 289.439 317.067C289.518 316.759 289.334 316.444 289.026 316.365C288.717 316.286 288.402 316.47 288.324 316.778" fill="#002B67"/>
<path d="M264.099 347.949C264.336 348.1 264.637 348.054 264.828 347.851C265.018 347.647 265.031 347.339 264.86 347.116C260.82 341.737 253.945 335.565 247.005 332.692C242.263 330.724 237.494 330.304 233.532 332.6C229.898 334.705 227.642 338.484 227.11 341.77C226.737 344.092 227.235 346.158 228.613 347.339C230.056 348.579 232.561 348.894 236.241 347.267C251.873 340.36 264.086 347.962 264.086 347.962M262.289 345.778C258.288 341.094 252.443 336.208 246.559 333.767C242.171 331.95 237.763 331.491 234.103 333.61C230.79 335.525 228.724 338.969 228.245 341.96C227.944 343.83 228.252 345.522 229.36 346.467C230.58 347.51 232.679 347.582 235.776 346.211C247.793 340.898 257.868 343.876 262.289 345.778" fill="#388AF7"/>
<path d="M296.661 347.569C296.562 347.792 296.615 348.047 296.792 348.218C296.963 348.382 297.225 348.428 297.441 348.323C299.849 347.162 302.466 346.263 305.477 346.217C307.864 346.178 310.219 346.453 312.495 346.447C314.863 346.44 317.153 346.125 319.291 344.905C321.79 343.475 322.486 341.527 322 339.75C321.311 337.224 318.005 334.922 313.558 335.053C302.007 335.394 296.661 347.582 296.661 347.582M298.452 346.611C300.583 345.732 302.886 345.109 305.457 345.069C307.851 345.03 310.213 345.306 312.489 345.299C314.66 345.292 316.753 345.024 318.714 343.908C320.157 343.088 320.878 342.078 320.977 341.042C321.069 340.091 320.629 339.14 319.829 338.339C318.524 337.034 316.287 336.135 313.591 336.214C305.109 336.463 300.203 343.521 298.452 346.617" fill="#00D7A0"/>
<path d="M432.519 220.078C440.729 205.857 458.918 200.985 473.138 209.194C487.359 217.404 492.232 235.593 484.022 249.814L432.519 220.078Z" fill="#E85757"/>
<path d="M376.846 325.882L371.388 325.231L367.563 324.366L365.832 332.01L369.657 332.875L379.097 336.075L382.98 336.96L388.887 326.402L391.359 321.152L380.86 316.208L378.388 321.458L376.846 325.882Z" fill="#E85757"/>
<path d="M362.326 333.688L381.374 339.829C381.881 339.992 382.161 340.538 381.998 341.045C381.836 341.553 381.289 341.833 380.782 341.67L361.734 335.529C361.227 335.366 360.947 334.82 361.109 334.312C361.272 333.805 361.819 333.525 362.326 333.688Z" fill="#002B67"/>
<path d="M378.921 318.908C379.773 319.474 380.749 319.812 381.601 320.365C382.05 320.657 382.174 321.256 381.888 321.698C381.595 322.147 380.996 322.277 380.554 321.985C379.695 321.432 378.707 321.087 377.854 320.514C377.412 320.222 377.288 319.623 377.588 319.174C377.887 318.732 378.485 318.608 378.928 318.908" fill="#002B67"/>
<path d="M377.236 323.403C378.043 324.118 378.804 324.893 379.63 325.589C380.04 325.933 380.092 326.545 379.747 326.948C379.402 327.358 378.791 327.404 378.388 327.065C377.555 326.363 376.781 325.576 375.961 324.854C375.564 324.502 375.525 323.891 375.876 323.487C376.228 323.091 376.839 323.052 377.243 323.403" fill="#002B67"/>
<path d="M343.311 293.302L339.408 289.432L336.929 286.4L330.859 291.364L333.338 294.395L338.816 302.729L341.333 305.812L352.483 301.122L357.662 298.5L352.425 288.144L347.246 290.759L343.311 293.302Z" fill="#E85757"/>
<path d="M327.06 290.531L338.308 307.087C338.607 307.53 338.49 308.128 338.054 308.427C337.612 308.727 337.013 308.61 336.708 308.174L325.466 291.618C325.167 291.175 325.278 290.577 325.72 290.277C326.162 289.978 326.761 290.095 327.06 290.531Z" fill="#002B67"/>
<path d="M349.237 289.087C349.562 290.056 350.128 290.922 350.46 291.884C350.636 292.392 350.369 292.938 349.862 293.114C349.354 293.29 348.808 293.023 348.632 292.515C348.294 291.546 347.728 290.668 347.403 289.692C347.233 289.185 347.507 288.638 348.014 288.469C348.522 288.3 349.068 288.573 349.231 289.081" fill="#002B67"/>
<path d="M345.145 291.591C345.34 292.652 345.464 293.732 345.685 294.786C345.796 295.306 345.464 295.82 344.937 295.931C344.417 296.041 343.903 295.703 343.792 295.182C343.564 294.116 343.441 293.023 343.239 291.943C343.142 291.422 343.486 290.915 344.007 290.817C344.527 290.72 345.035 291.064 345.132 291.591" fill="#002B67"/>
<path d="M454.943 185.56C452.406 191.038 453.961 197.901 459.893 198.317C460.882 198.389 461.943 198.077 462.873 197.699C465.117 196.808 466.516 195.104 467.576 193.055C468.689 190.908 469.443 188.384 470.341 185.964C470.452 185.665 470.783 185.515 471.076 185.626C471.375 185.736 471.525 186.068 471.414 186.361C470.497 188.826 469.73 191.389 468.591 193.575C467.401 195.865 465.813 197.752 463.296 198.753C462.209 199.189 460.967 199.527 459.809 199.449C453.069 198.975 451.02 191.285 453.902 185.066C454.032 184.78 454.377 184.656 454.663 184.786C454.949 184.916 455.073 185.261 454.943 185.547" fill="#002B67"/>
<path d="M470.862 185.613C472.182 185.561 473.659 185.32 474.609 184.338C475.962 182.945 476.014 180.259 474.036 179.452C473.138 179.081 472.182 179.296 471.252 179.361C470.94 179.38 470.666 179.14 470.64 178.828C470.621 178.515 470.862 178.242 471.174 178.216C472.273 178.144 473.405 177.956 474.465 178.392C477.198 179.511 477.295 183.212 475.422 185.131C474.264 186.322 472.501 186.693 470.901 186.751C470.582 186.764 470.322 186.517 470.309 186.198C470.296 185.886 470.543 185.619 470.855 185.606" fill="#002B67"/>
<path d="M440.033 300.803H480.496V307.816H440.033V300.803Z" fill="#002B67"/>
<path d="M461.24 307.823V345.56C461.24 346.1 460.798 346.542 460.258 346.542C459.718 346.542 459.276 346.1 459.276 345.56V307.823C459.276 307.283 459.718 306.84 460.258 306.84C460.798 306.84 461.24 307.283 461.24 307.823Z" fill="#002B67"/>
<path d="M461.142 304.745L440.911 345.989C440.67 346.477 440.085 346.679 439.597 346.438C439.109 346.198 438.907 345.612 439.148 345.124L459.379 303.88C459.62 303.392 460.206 303.191 460.694 303.431C461.181 303.672 461.383 304.257 461.142 304.745Z" fill="#002B67"/>
<path d="M461.143 303.88L481.374 345.124C481.615 345.612 481.413 346.198 480.925 346.438C480.438 346.679 479.852 346.477 479.611 345.989L459.38 304.745C459.139 304.257 459.341 303.672 459.828 303.431C460.316 303.191 460.902 303.392 461.143 303.88Z" fill="#002B67"/>
<path d="M421.993 279.719C425.435 281.944 446.148 294.499 469.613 290.772C477.458 289.529 482.174 286.316 484.946 282.451C491.406 273.455 487.262 260.841 487.262 260.841C487.184 260.606 486.962 260.45 486.715 260.45H424.511C414.558 260.45 405.378 265.85 400.551 274.554C392.615 288.866 381.354 309.156 381.354 309.156C381.276 309.293 381.263 309.449 381.309 309.598C381.354 309.748 381.452 309.872 381.588 309.943L397.429 318.264C397.696 318.4 398.021 318.316 398.184 318.062L422 279.726L421.993 279.719ZM486.292 261.595C486.91 263.729 489.512 274.138 484.015 281.788C481.387 285.45 476.886 288.462 469.437 289.646C444.164 293.654 422.143 278.451 422.143 278.451C422.013 278.36 421.857 278.327 421.7 278.36C421.544 278.392 421.414 278.483 421.33 278.62L397.487 317.008L382.642 309.208L401.553 275.12C406.179 266.78 414.967 261.602 424.511 261.602H486.292V261.595Z" fill="#002B67"/>
<path d="M358.084 282.764L399.563 261.53C399.842 261.387 399.953 261.042 399.81 260.763C399.667 260.483 399.322 260.372 399.042 260.515L357.089 281.99C356.822 282.126 356.705 282.445 356.816 282.718L362.313 296.041C362.378 296.191 362.495 296.308 362.651 296.36C362.801 296.419 362.97 296.405 363.113 296.327L388.66 283.004C388.939 282.861 389.05 282.51 388.9 282.23C388.751 281.951 388.406 281.84 388.126 281.99L363.133 295.02L358.078 282.764H358.084Z" fill="#002B67"/>
<path d="M473.509 175.965C473.509 178.873 464.324 185.84 454.429 185.32C445.517 184.852 444.131 170.449 454.429 167.886C466.594 164.861 473.509 175.965 473.509 175.965Z" fill="#002B67"/>
<path d="M470.361 178.821C471.271 178.788 472.163 178.912 473.054 179.114C475.337 179.641 477.113 181.898 475.298 184.11C473.808 185.931 467.973 186.614 470.1 190.212C471.558 192.677 475.135 192.398 477.484 191.851C483.072 190.544 487.066 185.808 487.906 180.395C488.751 174.97 484.067 169.382 478.792 168.211C474.251 167.209 468.428 168.79 467.251 173.76L470.367 178.821H470.361Z" fill="#002B67"/>
<path d="M482.578 184.624C487.86 184.916 492.362 185.951 496.395 189.49C500.968 193.497 501.625 201.011 495.823 204.335C491.62 206.742 485.687 205.63 481.914 202.891C480.6 201.934 479.253 200.907 478.31 199.606C478.004 199.183 477.751 198.727 477.523 198.265C477.412 198.044 477.165 197.355 477.211 197.595C477.556 199.365 477.712 201.245 476.495 202.774C473.854 206.072 468.63 203.88 467.446 200.562C466.009 196.522 468.058 193.211 469.73 189.743L482.578 184.624V184.624Z" fill="#002B67"/>
<path d="M457.617 209.624C457.617 209.8 457.617 209.975 457.63 210.151C457.701 210.919 458.039 211.868 458.625 212.512C459.067 213 459.64 213.313 460.323 213.326C461.826 213.345 462.762 212.467 463.283 211.224C463.972 209.578 463.888 207.243 463.575 205.948C463.504 205.643 463.192 205.454 462.886 205.526C462.58 205.597 462.391 205.909 462.463 206.215C462.736 207.334 462.827 209.351 462.229 210.775C461.891 211.582 461.312 212.187 460.342 212.174C459.887 212.174 459.542 211.868 459.295 211.504C458.989 211.062 458.82 210.509 458.774 210.047C458.742 209.67 458.787 209.279 458.833 208.908C458.853 208.759 458.989 208.492 459.022 208.336C459.054 208.167 459.041 208.03 459.009 207.939C458.957 207.777 458.853 207.666 458.722 207.594C458.605 207.529 458.443 207.477 458.202 207.555C458.046 207.607 457.864 207.724 457.688 207.887C457.441 208.115 457.194 208.46 457.025 208.622C456.498 209.117 455.964 209.624 455.268 209.871C454.8 210.034 454.24 210.092 453.778 209.982C453.544 209.923 453.336 209.826 453.206 209.65C453.063 209.455 453.043 209.175 453.128 208.811C453.362 207.809 453.974 207.347 454.585 206.606C454.787 206.365 454.754 206.001 454.507 205.799C454.26 205.597 453.902 205.63 453.7 205.877C452.965 206.762 452.289 207.347 452.009 208.551C451.827 209.331 451.976 209.904 452.269 210.32C452.549 210.71 452.985 210.971 453.499 211.094C454.162 211.257 454.962 211.185 455.639 210.951C456.407 210.684 457.025 210.177 457.61 209.631" fill="white"/>
<path d="M463.075 253.372L416.438 242.808C416.132 242.736 415.82 242.931 415.755 243.237C415.683 243.543 415.878 243.855 416.184 243.92L463.114 254.55C463.296 254.589 463.491 254.543 463.628 254.413C463.628 254.413 480.769 238.618 487.587 225.972C489.083 223.2 490.085 220.579 490.332 218.295C490.592 215.875 490.026 213.82 488.381 212.317C482.181 206.657 475.467 209.136 469.652 214.256C462.027 220.976 455.977 232.23 454.884 234.331L416.353 231.241C416.041 231.215 415.761 231.449 415.735 231.768C415.709 232.08 415.943 232.36 416.262 232.386L455.177 235.509C455.411 235.528 455.633 235.405 455.737 235.196C455.737 235.196 462.118 222.426 470.413 215.121C475.754 210.417 481.908 207.965 487.613 213.169C488.986 214.425 489.415 216.155 489.194 218.178C488.96 220.338 487.997 222.817 486.579 225.438C480.281 237.115 465.078 251.499 463.075 253.372" fill="#002B67"/>
<path d="M346.31 249.814H416.314V253.997H346.31V249.814Z" fill="#002B67"/>
<path d="M335.745 220.078H381.855L392.42 249.814H346.31L335.745 220.078Z" fill="#002B67"/>
<path d="M415.761 231.625C414.72 227.383 412.138 223.617 408.046 221.75C407.18 221.353 405.665 221.015 404.403 221.158C403.759 221.229 403.173 221.418 402.848 221.867C402.64 222.153 402.555 222.537 402.601 223.031C402.692 224.007 403.31 224.469 404.064 224.755C405.008 225.107 406.146 225.211 407.037 225.458C409.542 226.141 411.539 227.845 412.268 230.389C412.352 230.695 412.177 231.007 411.871 231.098C411.565 231.183 411.253 231.007 411.162 230.701C410.55 228.554 408.846 227.143 406.732 226.564C405.808 226.31 404.637 226.193 403.661 225.829C402.497 225.393 401.592 224.638 401.456 223.135C401.378 222.303 401.566 221.672 401.911 221.197C402.256 220.722 402.763 220.397 403.375 220.202C404.962 219.701 407.285 220.143 408.508 220.709C412.925 222.726 415.729 226.772 416.86 231.352C416.939 231.657 416.75 231.97 416.444 232.048C416.138 232.126 415.826 231.937 415.748 231.631" fill="#002B67"/>
<path d="M411.227 230.961C408.163 229.329 404.162 228.067 400.974 229.908C400.174 230.37 399.387 230.864 398.984 231.729C398.45 232.868 398.717 234.442 400.129 234.559C400.636 234.605 401.143 234.318 401.638 234.006C402.262 233.609 402.861 233.128 403.407 232.848C404.695 232.185 406.185 232.165 407.603 232.048C407.915 232.022 408.195 232.256 408.221 232.575C408.247 232.887 408.013 233.167 407.694 233.193C406.426 233.297 405.086 233.277 403.934 233.869C403.303 234.195 402.601 234.8 401.865 235.21C401.267 235.548 400.649 235.756 400.037 235.704C397.754 235.509 397.097 233.076 397.949 231.248C398.457 230.168 399.406 229.498 400.402 228.919C403.934 226.883 408.371 228.145 411.767 229.96C412.046 230.109 412.15 230.454 412.001 230.734C411.851 231.014 411.506 231.118 411.227 230.968" fill="#002B67"/>
<path d="M407.994 233.121C405.905 234.104 404.383 234.839 403.733 237.291C403.629 237.688 403.59 238.222 403.713 238.683C403.804 239.035 403.993 239.354 404.377 239.445C404.663 239.51 404.91 239.314 405.151 239.113C405.541 238.788 405.892 238.378 406.198 238.131C407.317 237.22 408.69 236.79 410.069 236.459C410.375 236.387 410.687 236.576 410.758 236.881C410.83 237.187 410.641 237.499 410.336 237.571C409.119 237.864 407.903 238.222 406.914 239.022C406.543 239.327 406.094 239.867 405.593 240.212C405.131 240.531 404.624 240.694 404.103 240.57C403.42 240.407 402.985 239.965 402.737 239.386C402.419 238.657 402.438 237.695 402.62 237.005C403.375 234.162 405.073 233.232 407.499 232.094C407.786 231.963 408.124 232.081 408.26 232.367C408.397 232.653 408.273 232.991 407.987 233.128" fill="#002B67"/>
<path d="M446.122 205.161C444.437 202.897 442.212 201.85 439.994 201.954C437.762 202.058 435.57 203.327 433.963 205.61C430.418 210.671 430.645 217.671 430.353 223.636C430.34 223.955 430.066 224.196 429.754 224.183C429.442 224.17 429.195 223.897 429.208 223.584C429.507 217.417 429.351 210.19 433.02 204.959C434.854 202.344 437.385 200.939 439.935 200.815C442.498 200.692 445.094 201.863 447.039 204.485C447.228 204.738 447.176 205.096 446.922 205.285C446.668 205.473 446.31 205.421 446.122 205.168" fill="#002B67"/>
<path d="M394.3 214.965C396.622 212.22 398.847 209.13 400.753 206.065C400.922 205.799 401.274 205.714 401.54 205.883C401.807 206.052 401.892 206.404 401.722 206.67C399.79 209.78 397.533 212.922 395.171 215.706C394.963 215.947 394.606 215.98 394.365 215.771C394.124 215.57 394.092 215.206 394.3 214.965" fill="#002B67"/>
<path d="M384.242 211.4C385.641 204.426 387.534 197.537 388.51 190.472C388.555 190.16 388.842 189.939 389.154 189.984C389.466 190.03 389.687 190.316 389.642 190.628C388.666 197.713 386.766 204.621 385.368 211.621C385.303 211.933 385.004 212.135 384.691 212.07C384.379 212.005 384.177 211.706 384.242 211.393" fill="#002B67"/>
<path d="M373.06 210.196C372.143 206.26 370.92 202.338 369.632 198.499C369.534 198.2 369.69 197.875 369.996 197.777C370.295 197.68 370.62 197.836 370.718 198.135C372.013 202.006 373.242 205.961 374.166 209.936C374.237 210.242 374.049 210.554 373.743 210.626C373.437 210.697 373.125 210.508 373.053 210.196" fill="#002B67"/>
<path d="M359.255 231.827C359.769 231.631 360.348 231.697 360.908 232.002C361.597 232.386 362.267 233.167 362.658 234.188C363.048 235.216 363.061 236.244 362.794 236.985C362.58 237.584 362.189 238.02 361.675 238.215C361.162 238.41 360.583 238.345 360.023 238.039C359.333 237.655 358.663 236.875 358.273 235.853C357.883 234.826 357.87 233.798 358.137 233.056C358.351 232.458 358.742 232.022 359.255 231.827ZM359.659 232.9C359.444 232.985 359.301 233.186 359.216 233.44C359.028 233.973 359.067 234.715 359.346 235.45C359.626 236.185 360.088 236.764 360.583 237.044C360.817 237.174 361.057 237.233 361.272 237.155C361.487 237.07 361.63 236.868 361.721 236.615C361.91 236.081 361.864 235.346 361.591 234.604C361.311 233.869 360.856 233.29 360.361 233.011C360.127 232.881 359.88 232.822 359.665 232.9" fill="white"/>
<path d="M416.483 134.239L409.184 151.57L429.019 148.252L416.483 134.239Z" fill="#FFA821"/>
<path d="M472.761 134.168L477.588 129.068C477.809 128.84 477.796 128.469 477.562 128.248C477.334 128.027 476.964 128.04 476.749 128.274L471.545 133.771C471.336 133.992 471.336 134.343 471.545 134.565L476.749 140.062C476.97 140.296 477.334 140.302 477.562 140.088C477.796 139.867 477.803 139.502 477.588 139.268L472.761 134.168Z" fill="#002B67"/>
<path d="M461.611 134.168L466.438 129.068C466.659 128.84 466.646 128.469 466.418 128.248C466.184 128.027 465.82 128.04 465.599 128.274L460.394 133.771C460.186 133.992 460.186 134.343 460.394 134.565L465.599 140.062C465.82 140.296 466.184 140.302 466.418 140.088C466.652 139.867 466.659 139.502 466.438 139.268L461.611 134.168Z" fill="#002B67"/>
<path d="M450.448 134.168L455.275 129.068C455.496 128.84 455.483 128.469 455.255 128.248C455.021 128.027 454.657 128.04 454.436 128.274L449.231 133.771C449.023 133.992 449.023 134.343 449.231 134.565L454.436 140.062C454.657 140.296 455.021 140.302 455.255 140.088C455.489 139.867 455.496 139.502 455.275 139.268L450.448 134.168Z" fill="#002B67"/>
</svg>
