<svg width="32" height="32" viewBox="0 0 32 32" fill="none" xmlns="http://www.w3.org/2000/svg">
<g clip-path="url(#clip0_1_314)">
<path d="M32 27.152H0V32H32V27.152Z" fill="#002B67"/>
<path d="M32 6.88959H25.1104V27.152H32V6.88959Z" fill="#225FD6"/>
<path d="M31.7184 0H32V6.8896H25.1104V6.608C25.1104 2.96 28.0672 0 31.7184 0" fill="#225FD6"/>
<path d="M25.1104 13.7792H18.2208V27.152H25.1104V13.7792Z" fill="#FFC400"/>
<path d="M24.8288 6.88959H25.1104V13.7792H18.2208V13.4976C18.2208 9.84959 21.1776 6.88959 24.8288 6.88959Z" fill="#FFC400"/>
<path d="M18.2208 20.6688H11.3312V27.152H18.2208V20.6688Z" fill="#FF6400"/>
<path d="M17.9392 13.7792H18.2208V20.6688H11.3312V20.3872C11.3312 16.7392 14.288 13.7792 17.9392 13.7792Z" fill="#FF6400"/>
</g>
<defs>
<clipPath id="clip0_1_314">
<rect width="32" height="32" fill="white"/>
</clipPath>
</defs>
</svg>
